<svg xmlns="http://www.w3.org/2000/svg" viewBox="0 0 324 147"><defs><style>.cls-1{fill:#fff;stroke:red;}.cls-1,.cls-2,.cls-3,.cls-5{stroke-miterlimit:10;}.cls-1,.cls-2,.cls-3{stroke-width:2px;}.cls-2{fill:#d2f1e7;}.cls-2,.cls-3{stroke:#000;}.cls-3,.cls-5{fill:none;}.cls-4{fill:#db2027;}.cls-5{stroke:#db2027;}.cls-6{fill-rule:evenodd;}</style></defs><title>clipart-sketch-aircraft</title><g id="Layer_2" data-name="Layer 2"><g id="Layer_1-2" data-name="Layer 1"><rect class="cls-1" x="1" y="1" width="322" height="145"/><rect class="cls-2" x="1" y="1" width="161" height="25"/><rect class="cls-2" x="162" y="1" width="161" height="25"/><rect class="cls-3" x="1" y="26" width="161" height="120"/><rect class="cls-3" x="162" y="26" width="161" height="120"/><path d="M20.25,47.25,17.17,35.11h1.65l1.45,6.14c.36,1.52.68,3,.9,4.2h0c.2-1.21.58-2.65,1-4.21l1.62-6.13h1.64l1.48,6.16c.34,1.44.66,2.88.84,4.16h0c.25-1.33.59-2.68,1-4.19l1.6-6.13H32L28.55,47.25H26.91l-1.53-6.32a35.81,35.81,0,0,1-.79-4h0a39.07,39.07,0,0,1-.94,4l-1.72,6.32Z"/><path d="M33.73,43.18a2.8,2.8,0,0,0,3,3,5.75,5.75,0,0,0,2.41-.45l.27,1.13a7.09,7.09,0,0,1-2.9.54A4,4,0,0,1,32.22,43c0-2.63,1.55-4.7,4.08-4.7,2.85,0,3.6,2.5,3.6,4.1a5.67,5.67,0,0,1,0,.74Zm4.64-1.13a2.25,2.25,0,0,0-2.19-2.58,2.63,2.63,0,0,0-2.43,2.58Z"/><path d="M41.86,34.47h1.59V47.25H41.86Z"/><path d="M52.32,46.93a5.91,5.91,0,0,1-2.5.5A4.14,4.14,0,0,1,45.48,43a4.43,4.43,0,0,1,4.68-4.62,5.23,5.23,0,0,1,2.2.45L52,40a3.64,3.64,0,0,0-1.84-.41,3,3,0,0,0-3.08,3.29,3,3,0,0,0,3,3.26,4.45,4.45,0,0,0,1.94-.43Z"/><path d="M62,42.82a4.26,4.26,0,0,1-4.33,4.63A4.15,4.15,0,0,1,53.44,43a4.25,4.25,0,0,1,4.32-4.62C60.26,38.34,62,40.16,62,42.82ZM55,42.91c0,1.91,1.1,3.35,2.65,3.35s2.64-1.42,2.64-3.39c0-1.47-.73-3.34-2.61-3.34S55,41.25,55,42.91Z"/><path d="M64,40.89c0-.9,0-1.63-.07-2.35h1.39l.07,1.4h0a3,3,0,0,1,2.74-1.6,2.56,2.56,0,0,1,2.46,1.74h0a3.63,3.63,0,0,1,1-1.13,3,3,0,0,1,1.93-.61c1.15,0,2.86.75,2.86,3.78v5.13H74.84V42.32c0-1.68-.61-2.69-1.89-2.69a2.05,2.05,0,0,0-1.87,1.44,2.73,2.73,0,0,0-.13.8v5.38H69.41V42c0-1.39-.62-2.4-1.82-2.4a2.19,2.19,0,0,0-2,1.59,2.15,2.15,0,0,0-.12.77v5.26H64Z"/><path d="M79.84,43.18a2.8,2.8,0,0,0,3,3,5.8,5.8,0,0,0,2.42-.45l.27,1.13a7.13,7.13,0,0,1-2.9.54A4,4,0,0,1,78.33,43c0-2.63,1.55-4.7,4.09-4.7,2.84,0,3.6,2.5,3.6,4.1,0,.33,0,.58,0,.74Zm4.65-1.13a2.26,2.26,0,0,0-2.2-2.58,2.63,2.63,0,0,0-2.43,2.58Z"/><path d="M93.81,43.43l-1.26,3.82H90.93l4.13-12.14H97l4.14,12.14H99.41l-1.29-3.82Zm4-1.22L96.6,38.72c-.27-.8-.45-1.52-.63-2.22h0c-.18.72-.38,1.46-.62,2.2l-1.18,3.51Z"/><path d="M102.69,47.25c0-.59.07-1.48.07-2.25V34.47h1.56v5.47h0a3.25,3.25,0,0,1,3-1.6c2.16,0,3.69,1.8,3.67,4.44,0,3.12-2,4.67-3.9,4.67a3.12,3.12,0,0,1-2.92-1.64h-.05l-.08,1.44Zm1.63-3.49a2.7,2.7,0,0,0,.08.57,2.44,2.44,0,0,0,2.37,1.86c1.66,0,2.65-1.35,2.65-3.35,0-1.75-.9-3.24-2.59-3.24a2.54,2.54,0,0,0-2.42,1.94,3.64,3.64,0,0,0-.09.65Z"/><path d="M120.89,42.82a4.27,4.27,0,0,1-4.34,4.63A4.15,4.15,0,0,1,112.37,43a4.25,4.25,0,0,1,4.32-4.62A4.13,4.13,0,0,1,120.89,42.82Zm-6.92.09c0,1.91,1.1,3.35,2.65,3.35s2.65-1.42,2.65-3.39c0-1.47-.74-3.34-2.62-3.34S114,41.25,114,42.91Z"/><path d="M127.71,47.25l-.13-1.1h0a3.24,3.24,0,0,1-2.67,1.3A2.48,2.48,0,0,1,122.2,45c0-2.11,1.87-3.26,5.24-3.25v-.18a1.79,1.79,0,0,0-2-2,4.31,4.31,0,0,0-2.27.65l-.36-1a5.38,5.38,0,0,1,2.86-.77c2.67,0,3.31,1.82,3.31,3.56v3.26a12,12,0,0,0,.15,2.09Zm-.24-4.45c-1.73,0-3.69.27-3.69,2a1.41,1.41,0,0,0,1.5,1.52,2.16,2.16,0,0,0,2.1-1.46,1.48,1.48,0,0,0,.09-.51Z"/><path d="M131.56,41.25c0-1,0-1.9-.07-2.71h1.38l.06,1.71H133a2.61,2.61,0,0,1,2.41-1.91,2,2,0,0,1,.45,0v1.5a2.12,2.12,0,0,0-.54-.06,2.21,2.21,0,0,0-2.12,2,3.88,3.88,0,0,0-.08.73v4.65h-1.56Z"/><path d="M144.79,34.47V45c0,.77,0,1.66.07,2.25h-1.42l-.07-1.51h0a3.22,3.22,0,0,1-3,1.71c-2.11,0-3.73-1.78-3.73-4.43,0-2.9,1.79-4.68,3.91-4.68a2.93,2.93,0,0,1,2.63,1.33h0v-5.2Zm-1.58,7.61a2.44,2.44,0,0,0-.08-.66,2.32,2.32,0,0,0-2.28-1.84c-1.64,0-2.61,1.44-2.61,3.37,0,1.76.86,3.22,2.57,3.22a2.37,2.37,0,0,0,2.32-1.89,2.51,2.51,0,0,0,.08-.69Z"/><path d="M59.5,137.5V125.36h1.72l3.89,6.14a34.88,34.88,0,0,1,2.17,3.95l0,0c-.14-1.62-.18-3.1-.18-5v-5.08h1.48V137.5H67l-3.85-6.16a36.92,36.92,0,0,1-2.27-4l0,0c.08,1.53.12,3,.12,5v5.19Z"/><path d="M75.69,137.5v-3.19H70.25v-1l5.22-7.47h1.71v7.27h1.64v1.24H77.18v3.19Zm0-4.43v-3.91c0-.61,0-1.22,0-1.83h0c-.36.68-.65,1.18-1,1.73l-2.87,4v0Z"/><path d="M84.92,137.5v-3.19H79.48v-1l5.23-7.47h1.71v7.27h1.64v1.24H86.42v3.19Zm0-4.43v-3.91q0-.91.06-1.83h-.06c-.36.68-.65,1.18-1,1.73l-2.86,4v0Z"/><path d="M92.3,125.36h1.57v8.12c0,3.23-1.59,4.22-3.68,4.22a5.14,5.14,0,0,1-1.67-.29l.23-1.28a3.71,3.71,0,0,0,1.32.24c1.4,0,2.23-.63,2.23-3Z"/><path d="M96.48,125.53a14.54,14.54,0,0,1,2.86-.26,5,5,0,0,1,3.33.89,2.52,2.52,0,0,1,1,2.14,2.88,2.88,0,0,1-2.05,2.66v0a3.13,3.13,0,0,1,2.5,3,3.26,3.26,0,0,1-1,2.43c-.84.78-2.21,1.14-4.19,1.14a16.8,16.8,0,0,1-2.43-.15Zm1.56,5h1.43c1.65,0,2.62-.87,2.62-2,0-1.42-1.08-2-2.66-2a6.29,6.29,0,0,0-1.39.11Zm0,5.81a7.82,7.82,0,0,0,1.32.07c1.62,0,3.11-.59,3.11-2.36s-1.42-2.34-3.13-2.34H98Z"/><path class="cls-4" d="M26.21,78.58,25.37,83a6,6,0,0,0-.09.94,1.28,1.28,0,0,0,1.38,1.43c1,0,1.76-.68,2.07-2.34l.84-4.42h.92L29.64,83c-.43,2.21-1.53,3.1-3.1,3.1a2,2,0,0,1-2.17-2.19,5.18,5.18,0,0,1,.1-1l.82-4.33Z"/><path class="cls-4" d="M30.74,85.08a2.44,2.44,0,0,0,1.14.33.92.92,0,0,0,1-.87c0-.42-.18-.67-.73-1a1.59,1.59,0,0,1-1-1.36,1.75,1.75,0,0,1,1.92-1.65,2.25,2.25,0,0,1,1.12.27l-.26.69a1.88,1.88,0,0,0-.92-.24.86.86,0,0,0-1,.8c0,.39.26.63.73.89a1.69,1.69,0,0,1,1,1.4,1.81,1.81,0,0,1-2,1.75,2.37,2.37,0,0,1-1.32-.36Z"/><path class="cls-4" d="M38.64,85.69a3.71,3.71,0,0,1-1.76.42,1.92,1.92,0,0,1-2-2.13c0-1.61,1.19-3.43,2.91-3.43a1.39,1.39,0,0,1,1.56,1.37c0,1.4-1.58,1.77-3.54,1.74a2,2,0,0,0,.11,1,1.19,1.19,0,0,0,1.18.71A2.92,2.92,0,0,0,38.5,85Zm-1-4.42c-.87,0-1.51.85-1.73,1.68,1.43,0,2.55-.17,2.55-1C38.44,81.51,38.11,81.27,37.62,81.27Z"/><path class="cls-4" d="M46.94,85.76a5,5,0,0,1-1.92.35A2.82,2.82,0,0,1,42,83a4.61,4.61,0,0,1,1.59-3.58,4.23,4.23,0,0,1,2.79-1,2.92,2.92,0,0,1,1.61.37l-.3.73a3.34,3.34,0,0,0-3.59.53A3.92,3.92,0,0,0,43,82.91a2.12,2.12,0,0,0,2.26,2.42A3.71,3.71,0,0,0,46.82,85Z"/><path class="cls-4" d="M47.9,86l1.48-7.81h.92L48.8,86Z"/><path class="cls-4" d="M50.4,86l1-5.32h.91l-1,5.32Zm1.19-6.81a.61.61,0,0,1,.61-.62.54.54,0,0,1,.54.58.6.6,0,0,1-.62.61A.53.53,0,0,1,51.59,79.19Z"/><path class="cls-4" d="M52.45,88.18l1.07-5.61c.11-.64.22-1.36.3-1.89h.83l-.15,1h0a2.4,2.4,0,0,1,1.91-1.13c1.16,0,1.64,1,1.64,1.93,0,1.87-1.34,3.64-3.11,3.64a2.39,2.39,0,0,1-1.16-.24h0l-.43,2.3ZM54,85.11a1.58,1.58,0,0,0,1,.3c1.18,0,2.17-1.47,2.17-2.86,0-.57-.26-1.24-1-1.24s-1.61.83-1.89,2.31Z"/><path class="cls-4" d="M62.24,83.66,61.06,86h-1l3.83-7.42H65L66,86H65.1l-.3-2.34Zm2.49-.73-.29-2.14c0-.39-.1-.93-.13-1.37h0c-.2.44-.39.9-.61,1.35l-1.11,2.16Z"/><path class="cls-4" d="M67,86l.64-3.43c.14-.7.22-1.4.28-1.89h.8c0,.37-.09.74-.14,1.15h0a1.93,1.93,0,0,1,1.63-1.28l.25,0-.17.9-.24,0c-.8,0-1.5,1-1.73,2.2L67.94,86Z"/><path class="cls-4" d="M73.2,79.24l-.28,1.44H74.2l-.14.71H72.78L72.28,84a5,5,0,0,0-.1.85.45.45,0,0,0,.51.51,2.81,2.81,0,0,0,.43,0l-.05.71a2,2,0,0,1-.7.1,1,1,0,0,1-1.12-1,4.69,4.69,0,0,1,.11-1l.53-2.7h-.77l.14-.71H72l.23-1.2Z"/><path class="cls-4" d="M31.27,91.79h.91l-.69,3.6h.05c.25-.31.51-.57.73-.82l2.6-2.77H36L32.89,95l1.92,4.22h-1l-1.62-3.64-.89.82-.54,2.82h-.9Z"/><path class="cls-4" d="M39,96.86,37.85,99.2h-1l3.84-7.41H41.8l1,7.41h-.94l-.3-2.34Zm2.49-.73L41.23,94c0-.39-.1-.93-.13-1.37h0c-.2.44-.39.9-.61,1.35l-1.11,2.16Z"/><path class="cls-4" d="M46.08,91.79,44.67,99.2h-.91l1.41-7.41Z"/><path class="cls-4" d="M47.73,91.89a8.89,8.89,0,0,1,1.62-.16,2.64,2.64,0,0,1,1.77.54,1.6,1.6,0,0,1,.55,1.23,2.31,2.31,0,0,1-1.76,2.15v0c.52.17.77.72.82,1.49a12.3,12.3,0,0,0,.24,2H50c0-.15-.12-.94-.18-1.79,0-1-.43-1.44-1.16-1.44h-.82l-.6,3.23h-.92ZM48,95.26h.81a1.73,1.73,0,0,0,1.9-1.65c0-.79-.59-1.14-1.43-1.14a3.39,3.39,0,0,0-.77.07Z"/><path class="cls-4" d="M52.23,98.14a2.57,2.57,0,0,0,1.38.4A1.62,1.62,0,0,0,55.39,97c0-.89-.7-1.27-1.53-1.27H53.5l.14-.71H54c.67,0,1.77-.44,1.77-1.39,0-.55-.33-.89-1-.89a2.3,2.3,0,0,0-1.35.4l-.2-.7a3.45,3.45,0,0,1,1.7-.48c1.2,0,1.83.71,1.83,1.54a2,2,0,0,1-1.58,1.85v0A1.59,1.59,0,0,1,56.36,97a2.57,2.57,0,0,1-2.79,2.36,2.73,2.73,0,0,1-1.65-.45Z"/><path class="cls-4" d="M62.53,94.17c0,2.33-1.11,5.15-3.11,5.15-1.31,0-1.79-1.09-1.79-2.45,0-2.38,1.25-4.94,3.13-4.94C62.12,91.93,62.53,93.07,62.53,94.17Zm-4,2.74c0,.75.14,1.67,1,1.67,1.34,0,2.06-2.91,2.06-4.35,0-.56-.08-1.57-1-1.57C59.41,92.66,58.55,95.17,58.55,96.91Z"/><path class="cls-4" d="M67.94,94.17c0,2.33-1.11,5.15-3.1,5.15-1.32,0-1.8-1.09-1.8-2.45,0-2.38,1.25-4.94,3.13-4.94C67.53,91.93,67.94,93.07,67.94,94.17Zm-4,2.74c0,.75.14,1.67,1,1.67,1.34,0,2.07-2.91,2.07-4.35,0-.56-.09-1.57-1-1.57C64.83,92.66,64,95.17,64,96.91Z"/><path class="cls-4" d="M89.39,60.33l-.84,4.39a6,6,0,0,0-.09.94,1.28,1.28,0,0,0,1.38,1.43c1,0,1.76-.68,2.07-2.34l.84-4.42h.92l-.85,4.44c-.43,2.21-1.53,3.1-3.1,3.1a2,2,0,0,1-2.17-2.19,5.18,5.18,0,0,1,.1-1l.82-4.33Z"/><path class="cls-4" d="M93.92,66.83a2.44,2.44,0,0,0,1.14.33.92.92,0,0,0,1-.87c0-.42-.18-.67-.73-1a1.59,1.59,0,0,1-1-1.36,1.76,1.76,0,0,1,1.93-1.65,2.24,2.24,0,0,1,1.11.27l-.26.69a1.85,1.85,0,0,0-.92-.24.86.86,0,0,0-.95.8c0,.39.26.63.73.89a1.69,1.69,0,0,1,1,1.4,1.81,1.81,0,0,1-2,1.75,2.37,2.37,0,0,1-1.32-.36Z"/><path class="cls-4" d="M101.82,67.44a3.71,3.71,0,0,1-1.76.42,1.92,1.92,0,0,1-2-2.13c0-1.61,1.19-3.43,2.91-3.43a1.39,1.39,0,0,1,1.56,1.37c0,1.4-1.57,1.77-3.54,1.74a2,2,0,0,0,.11,1,1.2,1.2,0,0,0,1.18.71,2.92,2.92,0,0,0,1.43-.37Zm-1-4.42c-.86,0-1.51.85-1.73,1.68,1.43,0,2.55-.17,2.55-1C101.62,63.26,101.29,63,100.8,63Z"/><path class="cls-4" d="M106.38,60.43a9.07,9.07,0,0,1,1.6-.15,2.39,2.39,0,0,1,1.7.52,1.43,1.43,0,0,1,.54,1.15,2,2,0,0,1-1.61,1.85v0a1.64,1.64,0,0,1,1.23,1.65,2.14,2.14,0,0,1-.9,1.72,3.89,3.89,0,0,1-2.39.6,8.8,8.8,0,0,1-1.54-.1ZM106,67a4.62,4.62,0,0,0,.76,0c1.08,0,2.09-.44,2.09-1.63,0-.87-.74-1.26-1.57-1.26h-.74Zm.68-3.53h.68c1.06,0,1.88-.55,1.88-1.45,0-.72-.53-1-1.34-1a3.29,3.29,0,0,0-.76.07Z"/><path class="cls-4" d="M110.67,67.75l.65-3.43c.13-.7.22-1.4.28-1.89h.8c-.05.37-.09.74-.15,1.15h0a1.92,1.92,0,0,1,1.63-1.28l.25,0-.18.9-.24,0c-.79,0-1.5.95-1.73,2.2l-.44,2.34Z"/><path class="cls-4" d="M119.36,62.43l-.71,3.77c-.11.59-.19,1.11-.25,1.55h-.82l.14-1h0a2.37,2.37,0,0,1-1.88,1.12c-.68,0-1.4-.33-1.4-1.54a4.55,4.55,0,0,1,.1-.89l.57-3H116l-.57,3a3.89,3.89,0,0,0-.09.78c0,.55.23.92.85.92a2.2,2.2,0,0,0,1.73-1.95l.52-2.72Z"/><path class="cls-4" d="M120,66.83a2.44,2.44,0,0,0,1.14.33.92.92,0,0,0,1-.87c0-.42-.18-.67-.73-1a1.59,1.59,0,0,1-1-1.36,1.76,1.76,0,0,1,1.93-1.65,2.24,2.24,0,0,1,1.11.27l-.26.69a1.85,1.85,0,0,0-.92-.24.86.86,0,0,0-.95.8c0,.39.26.63.73.89a1.69,1.69,0,0,1,1,1.4,1.81,1.81,0,0,1-2,1.75,2.37,2.37,0,0,1-1.32-.36Z"/><path class="cls-4" d="M124.06,67.75l1.48-7.81h.92l-.66,3.43h0a2.29,2.29,0,0,1,1.9-1.07A1.29,1.29,0,0,1,129,63.73a4.6,4.6,0,0,1-.09.91l-.59,3.11h-.91l.59-3.07a4.65,4.65,0,0,0,.07-.74.78.78,0,0,0-.83-.88,2.3,2.3,0,0,0-1.81,2l-.5,2.66Z"/><path class="cls-4" d="M132.09,66.61a2.81,2.81,0,0,0,1.57.47,1.46,1.46,0,0,0,1.61-1.4c0-.55-.32-1-1.09-1.38-1-.51-1.48-1.1-1.48-1.91a2.3,2.3,0,0,1,2.51-2.18,2.78,2.78,0,0,1,1.52.4l-.33.74a2.36,2.36,0,0,0-1.29-.34,1.33,1.33,0,0,0-1.46,1.21c0,.6.37.94,1.14,1.37a2.17,2.17,0,0,1,1.42,2,2.38,2.38,0,0,1-2.67,2.29,3,3,0,0,1-1.78-.51Z"/><path class="cls-4" d="M140.83,67.54a3.67,3.67,0,0,1-1.54.32,1.91,1.91,0,0,1-2-2.06,3.37,3.37,0,0,1,3.25-3.48,2.64,2.64,0,0,1,1.11.23l-.26.72a2.07,2.07,0,0,0-.9-.2,2.49,2.49,0,0,0-2.26,2.62,1.25,1.25,0,0,0,1.32,1.42,2.66,2.66,0,0,0,1.23-.3Z"/><path class="cls-4" d="M141.82,67.75l.65-3.43c.13-.7.22-1.4.28-1.89h.8c0,.37-.09.74-.14,1.15h0a1.92,1.92,0,0,1,1.63-1.28l.25,0-.18.9-.24,0c-.79,0-1.49.95-1.72,2.2l-.44,2.34Z"/><path class="cls-4" d="M145.32,67.75l1-5.32h.92l-1,5.32Zm1.19-6.81a.61.61,0,0,1,.6-.62.54.54,0,0,1,.54.58.59.59,0,0,1-.61.61A.53.53,0,0,1,146.51,60.94Z"/><path class="cls-4" d="M147.37,69.93l1.06-5.61c.11-.64.22-1.36.3-1.89h.84l-.16,1h0a2.41,2.41,0,0,1,1.92-1.13c1.15,0,1.64,1,1.64,1.93,0,1.87-1.34,3.64-3.12,3.64a2.34,2.34,0,0,1-1.15-.24h0l-.43,2.3Zm1.49-3.07a1.58,1.58,0,0,0,1,.3c1.18,0,2.17-1.47,2.17-2.86,0-.57-.25-1.24-1-1.24s-1.62.83-1.89,2.31Z"/><path class="cls-4" d="M156,61l-.27,1.44H157l-.14.71h-1.28l-.49,2.59a4.19,4.19,0,0,0-.1.85.45.45,0,0,0,.5.51,2.72,2.72,0,0,0,.43,0l0,.71a2,2,0,0,1-.7.1,1,1,0,0,1-1.13-1,5.44,5.44,0,0,1,.11-1l.53-2.7h-.77l.15-.71h.75l.23-1.2Z"/><path class="cls-4" d="M116.2,73.63a9.07,9.07,0,0,1,1.6-.15,2.39,2.39,0,0,1,1.7.52,1.4,1.4,0,0,1,.54,1.15,2,2,0,0,1-1.6,1.85v0a1.64,1.64,0,0,1,1.22,1.65,2.16,2.16,0,0,1-.89,1.72,4,4,0,0,1-2.4.6,8.8,8.8,0,0,1-1.54-.1Zm-.35,6.58a4.7,4.7,0,0,0,.76.05c1.08,0,2.09-.44,2.09-1.63,0-.87-.74-1.26-1.57-1.26h-.74Zm.68-3.53h.69c1,0,1.88-.55,1.88-1.45,0-.72-.54-1-1.35-1a3.13,3.13,0,0,0-.75.07Z"/><path class="cls-4" d="M125.63,77.73a3.19,3.19,0,0,1-2.95,3.34,2,2,0,0,1-2.08-2.19,3.19,3.19,0,0,1,3-3.38A2,2,0,0,1,125.63,77.73Zm-4.08,1.12c0,.87.47,1.5,1.25,1.5,1.08,0,1.9-1.39,1.9-2.63a1.32,1.32,0,0,0-1.25-1.49C122.31,76.23,121.54,77.63,121.55,78.85Z"/><path class="cls-4" d="M126.28,81l1.48-7.81h.92L127.18,81Z"/><path class="cls-4" d="M134.45,73.14l-1.16,6.13a12.76,12.76,0,0,0-.23,1.68h-.84l.14-1.06h0a2.26,2.26,0,0,1-1.91,1.18c-1,0-1.6-.85-1.6-1.94a3.5,3.5,0,0,1,3.29-3.63,2.43,2.43,0,0,1,.95.19l.47-2.55Zm-1.53,3.32a1.64,1.64,0,0,0-.88-.22A2.61,2.61,0,0,0,129.78,79c0,.64.22,1.31,1,1.31s1.55-.8,1.78-2Z"/><path class="cls-4" d="M139.14,74.33H137l.15-.79h5.26l-.15.79h-2.18L138.8,81h-.92Z"/><path class="cls-4" d="M142.58,75.63l.53,2.87c.12.6.19,1,.24,1.39h0c.15-.34.3-.71.57-1.29l1.36-3h1l-2,4a10.3,10.3,0,0,1-1.84,2.8,3.37,3.37,0,0,1-1.55.92l-.22-.78a3.64,3.64,0,0,0,1-.52,4.1,4.1,0,0,0,1-1.22.39.39,0,0,0,0-.24l-1.06-5Z"/><path class="cls-4" d="M145.79,83.13l1.07-5.61c.11-.64.22-1.36.3-1.89H148l-.15,1h0a2.41,2.41,0,0,1,1.92-1.13c1.15,0,1.63,1,1.63,1.93,0,1.87-1.34,3.64-3.11,3.64a2.34,2.34,0,0,1-1.15-.24h0l-.43,2.3Zm1.5-3.07a1.58,1.58,0,0,0,1,.3c1.18,0,2.17-1.47,2.17-2.86,0-.57-.25-1.24-1-1.24s-1.61.83-1.89,2.31Z"/><path class="cls-4" d="M155.91,80.64a3.65,3.65,0,0,1-1.76.42,1.91,1.91,0,0,1-2-2.13c0-1.61,1.19-3.43,2.9-3.43a1.39,1.39,0,0,1,1.57,1.37c0,1.4-1.58,1.77-3.55,1.74a2.28,2.28,0,0,0,.11,1,1.22,1.22,0,0,0,1.19.71,2.92,2.92,0,0,0,1.43-.37Zm-1-4.42c-.87,0-1.52.85-1.74,1.68,1.43,0,2.56-.17,2.56-1C155.72,76.46,155.39,76.22,154.9,76.22Z"/><path class="cls-4" d="M84.8,91.83,84,96.22a6,6,0,0,0-.08.94,1.28,1.28,0,0,0,1.37,1.43c1,0,1.76-.68,2.07-2.34l.85-4.42h.91l-.85,4.44c-.43,2.21-1.53,3.1-3.1,3.1A2,2,0,0,1,83,97.18a6.07,6.07,0,0,1,.1-1l.83-4.33Z"/><path class="cls-4" d="M89.33,98.33a2.48,2.48,0,0,0,1.15.33.92.92,0,0,0,1-.87c0-.42-.19-.67-.74-1a1.59,1.59,0,0,1-1-1.36,1.76,1.76,0,0,1,1.93-1.65,2.24,2.24,0,0,1,1.11.27l-.25.69a1.93,1.93,0,0,0-.93-.24.85.85,0,0,0-.94.8c0,.39.25.63.72.89a1.67,1.67,0,0,1,1,1.4,1.81,1.81,0,0,1-2,1.75A2.39,2.39,0,0,1,89.08,99Z"/><path class="cls-4" d="M97.23,98.94a3.71,3.71,0,0,1-1.76.42,1.92,1.92,0,0,1-2-2.13c0-1.61,1.19-3.43,2.91-3.43a1.39,1.39,0,0,1,1.56,1.37c0,1.4-1.57,1.77-3.54,1.74a2.14,2.14,0,0,0,.11,1,1.22,1.22,0,0,0,1.19.71,3,3,0,0,0,1.43-.37Zm-1-4.42c-.87,0-1.52.85-1.74,1.68,1.43,0,2.55-.17,2.55-1C97,94.76,96.7,94.52,96.22,94.52Z"/><path class="cls-4" d="M106.62,99.25l.53-4c.1-.71.27-1.8.41-2.51h0c-.35.75-.75,1.63-1.16,2.38l-2.2,4.09h-.7l-.56-4c-.1-.86-.18-1.71-.23-2.47h0c-.16.68-.39,1.8-.57,2.51l-1,4h-.86l1.93-7.42h1.16l.58,4.26a18.59,18.59,0,0,1,.18,1.85h0c.23-.55.55-1.21.87-1.83l2.3-4.28h1.19l-1,7.42Z"/><path class="cls-4" d="M110.2,93.93l.53,2.87c.12.6.18,1,.24,1.39h0c.14-.34.3-.71.57-1.29l1.35-3h1l-2,4a9.86,9.86,0,0,1-1.84,2.8,3.28,3.28,0,0,1-1.55.92l-.22-.78a3.5,3.5,0,0,0,1-.52,4.12,4.12,0,0,0,1-1.22.4.4,0,0,0,0-.24l-1.07-5Z"/><path class="cls-4" d="M113.88,99.25l.65-3.43c.13-.7.22-1.4.28-1.89h.8c0,.37-.09.74-.14,1.15h0a1.92,1.92,0,0,1,1.63-1.28l.25,0-.18.9-.24,0c-.79,0-1.49,1-1.72,2.2l-.44,2.34Z"/><path class="cls-4" d="M117.38,99.25l1-5.32h.92l-1,5.32Zm1.19-6.81a.61.61,0,0,1,.6-.62.54.54,0,0,1,.54.58.59.59,0,0,1-.61.61A.53.53,0,0,1,118.57,92.44Z"/><path class="cls-4" d="M123.43,99.25c0-.32.06-.83.12-1.38h0a2.33,2.33,0,0,1-2.07,1.5,1.58,1.58,0,0,1-1.53-1.76,3.73,3.73,0,0,1,3.69-3.81,5,5,0,0,1,1.43.21l-.54,2.78a12,12,0,0,0-.23,2.46Zm.6-4.64a2.27,2.27,0,0,0-.64-.08,2.84,2.84,0,0,0-2.51,2.92c0,.59.21,1.17.91,1.17s1.66-1,1.93-2.41Z"/><path class="cls-4" d="M131.31,91.44l-1.17,6.13a12.76,12.76,0,0,0-.23,1.68h-.84l.15-1.06h0a2.26,2.26,0,0,1-1.91,1.18c-1,0-1.59-.85-1.59-1.94A3.5,3.5,0,0,1,129,93.8a2.38,2.38,0,0,1,.94.19l.47-2.55Zm-1.53,3.32a1.69,1.69,0,0,0-.88-.22,2.61,2.61,0,0,0-2.27,2.77c0,.64.22,1.31,1,1.31s1.55-.8,1.78-2Z"/><path class="cls-4" d="M134.84,91.93a9,9,0,0,1,1.59-.15,2.43,2.43,0,0,1,1.71.52,1.43,1.43,0,0,1,.54,1.15,2,2,0,0,1-1.61,1.85v0A1.64,1.64,0,0,1,138.29,97a2.13,2.13,0,0,1-.89,1.72,3.93,3.93,0,0,1-2.4.6,8.8,8.8,0,0,1-1.54-.1Zm-.35,6.58a4.57,4.57,0,0,0,.75,0c1.08,0,2.09-.44,2.09-1.63,0-.87-.73-1.26-1.57-1.26H135Zm.68-3.53h.68c1.06,0,1.88-.55,1.88-1.45,0-.72-.54-1-1.34-1a3.23,3.23,0,0,0-.76.07Z"/><path class="cls-4" d="M139.14,99.25l1.48-7.81h.92L140,99.25Z"/><path class="cls-4" d="M145.18,99.25a12.64,12.64,0,0,1,.12-1.38h0a2.34,2.34,0,0,1-2.07,1.5,1.58,1.58,0,0,1-1.53-1.76,3.72,3.72,0,0,1,3.68-3.81,5,5,0,0,1,1.43.21l-.53,2.78a12.09,12.09,0,0,0-.24,2.46Zm.59-4.64a2.16,2.16,0,0,0-.64-.08,2.85,2.85,0,0,0-2.51,2.92c0,.59.21,1.17.92,1.17s1.66-1,1.92-2.41Z"/><path class="cls-4" d="M151.05,99a3.67,3.67,0,0,1-1.54.32,1.91,1.91,0,0,1-2-2.06,3.37,3.37,0,0,1,3.25-3.48,2.64,2.64,0,0,1,1.11.23l-.26.72a2.07,2.07,0,0,0-.9-.2,2.49,2.49,0,0,0-2.26,2.62,1.25,1.25,0,0,0,1.32,1.42,2.66,2.66,0,0,0,1.23-.3Z"/><path class="cls-4" d="M152.05,99.25l1.48-7.81h.91l-.94,4.89h0l.49-.53,1.88-1.87H157l-2.33,2.18,1.6,3.14h-1L154,96.62l-.67.61-.39,2Z"/><path class="cls-4" d="M115.4,105,114,112.45h-.91l1.41-7.41Z"/><path class="cls-4" d="M118.07,105.7l-.27,1.43h1.27l-.14.71h-1.27l-.5,2.59a5,5,0,0,0-.1.85.45.45,0,0,0,.51.51,2.81,2.81,0,0,0,.43,0l0,.71a2,2,0,0,1-.7.1,1,1,0,0,1-1.12-1,4.69,4.69,0,0,1,.11-1l.52-2.7H116l.15-.71h.76l.23-1.2Z"/><path class="cls-4" d="M122.66,112.45c0-.32.06-.83.12-1.37h0a2.32,2.32,0,0,1-2.07,1.49,1.58,1.58,0,0,1-1.53-1.76,3.73,3.73,0,0,1,3.69-3.81,5.07,5.07,0,0,1,1.43.21l-.54,2.78a12,12,0,0,0-.23,2.46Zm.59-4.64a2.13,2.13,0,0,0-.63-.08,2.84,2.84,0,0,0-2.51,2.92c0,.59.21,1.17.91,1.17s1.66-1,1.93-2.41Z"/><path class="cls-4" d="M124.88,112.45l1.49-7.81h.91l-1.5,7.81Z"/><path class="cls-4" d="M127.39,112.45l1-5.32h.92l-1,5.32Zm1.19-6.81a.61.61,0,0,1,.6-.62.54.54,0,0,1,.54.58.59.59,0,0,1-.61.61A.53.53,0,0,1,128.58,105.64Z"/><path class="cls-4" d="M133.57,112.24a3.67,3.67,0,0,1-1.54.32,1.91,1.91,0,0,1-2-2.06,3.37,3.37,0,0,1,3.25-3.48,2.64,2.64,0,0,1,1.11.23l-.26.72a2.07,2.07,0,0,0-.9-.2,2.49,2.49,0,0,0-2.26,2.62,1.25,1.25,0,0,0,1.32,1.42,2.66,2.66,0,0,0,1.23-.3Z"/><path class="cls-4" d="M139.14,105.83H137l.15-.79h5.26l-.15.79h-2.18l-1.25,6.62h-.92Z"/><path class="cls-4" d="M142.58,107.13l.53,2.87c.12.6.19,1,.24,1.39h0c.15-.34.3-.71.57-1.29l1.36-3h1l-2,4a10.3,10.3,0,0,1-1.84,2.8,3.37,3.37,0,0,1-1.55.92l-.22-.78a3.64,3.64,0,0,0,1-.52,4.1,4.1,0,0,0,1-1.22.39.39,0,0,0,0-.24l-1.06-5Z"/><path class="cls-4" d="M145.79,114.63l1.07-5.61c.11-.64.22-1.36.3-1.89H148l-.15,1h0a2.4,2.4,0,0,1,1.92-1.13c1.15,0,1.63,1,1.63,1.93,0,1.87-1.34,3.64-3.11,3.64a2.31,2.31,0,0,1-1.15-.24h0l-.43,2.3Zm1.5-3.07a1.58,1.58,0,0,0,1,.3c1.18,0,2.17-1.47,2.17-2.86,0-.57-.25-1.24-1-1.24s-1.61.83-1.89,2.31Z"/><path class="cls-4" d="M155.91,112.14a3.65,3.65,0,0,1-1.76.42,1.91,1.91,0,0,1-2-2.13c0-1.61,1.19-3.43,2.9-3.43a1.39,1.39,0,0,1,1.57,1.37c0,1.4-1.58,1.77-3.55,1.74a2.28,2.28,0,0,0,.11,1,1.22,1.22,0,0,0,1.19.71,2.92,2.92,0,0,0,1.43-.37Zm-1-4.42c-.87,0-1.52.85-1.74,1.68,1.43,0,2.56-.17,2.56-1C155.72,108,155.39,107.72,154.9,107.72Z"/><line class="cls-5" x1="83.5" y1="65" x2="57.68" y2="53.23"/><polygon class="cls-4" points="61.77 51.02 58.8 53.74 58.7 57.76 52.25 50.75 61.77 51.02"/><line class="cls-5" x1="109.35" y1="104.79" x2="94.86" y2="116.71"/><polygon class="cls-4" points="94.67 112.06 95.81 115.92 99.38 117.78 90.25 120.5 94.67 112.06"/><path d="M211.7,124l2.79-14.83H219l1.34,4.49c.58,2,1,3.67,1.37,5.46h.06a42.56,42.56,0,0,1,.71-5.62l.81-4.33h3.5L224,124H220l-1.5-4.84c-.62-2.09-1.06-3.57-1.47-5.55H217c-.18,1.48-.57,3.83-1,6.3l-.77,4.09Z"/><path d="M232,124l.62-3.28h-6.08l.49-2.48,6.44-8.54h4.73l-1.54,8.18h1.57l-.53,2.84h-1.56l-.64,3.28Zm1.14-6.12.55-2.37c.22-1,.53-2.05.75-3h-.09c-.66,1-1.27,2-2,3l-1.65,2.33,0,0Z"/><path d="M244.39,124l.62-3.28h-6.07l.48-2.48,6.45-8.54h4.73l-1.54,8.18h1.56l-.53,2.84h-1.56l-.64,3.28Zm1.15-6.12.55-2.37c.22-1,.52-2.05.74-3h-.08c-.66,1-1.28,2-2,3l-1.65,2.33,0,0Z"/><path d="M257,109.17h3.77l-1.85,9.62c-.73,3.87-2.44,5.45-6.05,5.45a7.72,7.72,0,0,1-2.53-.35l.7-3.19a6.46,6.46,0,0,0,1.74.24c1.3,0,2.11-.61,2.51-2.62Z"/><path d="M263.25,109.43a22.91,22.91,0,0,1,4.2-.37,8.18,8.18,0,0,1,3.78.68,3.13,3.13,0,0,1,2,2.88,3.62,3.62,0,0,1-2.89,3.46v0a3.22,3.22,0,0,1,2.29,3.22,4.11,4.11,0,0,1-2.13,3.56c-1.3.84-3.28,1.21-5.94,1.21a21.93,21.93,0,0,1-4-.29Zm1.45,11.71a8.81,8.81,0,0,0,1.1,0c1.52,0,2.86-.59,2.86-1.93s-1.15-1.63-2.53-1.63h-.77Zm1.23-6.25h.92c1.57,0,2.56-.57,2.56-1.63,0-.9-.77-1.3-1.81-1.3a5,5,0,0,0-1.12.09Z"/><path d="M182,52.43a3.11,3.11,0,0,1,.12-.72,1.91,1.91,0,0,1,.3-.73l.89-1.26c.27-.38.51-.71.72-1a8.28,8.28,0,0,1,.63-.75c1.28-1.38,2.19-2.42,2.75-3.1a3.21,3.21,0,0,0,.83-1.43A.46.46,0,0,0,188,43a1.22,1.22,0,0,0-.65-.16,5.27,5.27,0,0,0-2.09.59c-.84.4-1.82.91-2.94,1.54a10.22,10.22,0,0,1-1.87.94c-.2,0-.3-.15-.3-.44a3.46,3.46,0,0,1,.24-1c.12-.5.21-.88.29-1.15a2,2,0,0,1,.37-.74,3.71,3.71,0,0,1,.88-.71c.41-.25,1-.6,1.88-1l.11.41a14.9,14.9,0,0,1,2-.65,7,7,0,0,1,1.6-.22,3,3,0,0,1,1.85.44,2.51,2.51,0,0,1,.54,1.93,3.33,3.33,0,0,1-.24,1.35,8.91,8.91,0,0,1-.92,1.5,35.36,35.36,0,0,1-2.34,3.14c-1.52,1.74-2.28,2.76-2.28,3.05s.1.24.32.24a1.44,1.44,0,0,0,.77-.38,11.69,11.69,0,0,0,1.19-1.1l1.93-2.05c.87-.95,1.61-1.78,2.22-2.5s1.09-1.34,1.48-1.85.6-.79.62-.83a7.51,7.51,0,0,1,1.25-1.22,2.26,2.26,0,0,1,.83-.48c.09,0,.19.09.31.25a2.35,2.35,0,0,1,.31.59,1.45,1.45,0,0,1,.13.51,3.07,3.07,0,0,1-.27.55c-.18.32-.37.66-.58,1s-.55.88-1,1.6a43.81,43.81,0,0,0-2.34,4,6.51,6.51,0,0,0-.81,2.12.53.53,0,0,0,.13.33.38.38,0,0,0,.27.15,1.72,1.72,0,0,0,.65-.29,6.45,6.45,0,0,0,1-.82,14.74,14.74,0,0,0,1.37-1.5,19.92,19.92,0,0,0,1.23-1.73c.4-.63.76-1.24,1.07-1.8s.64-1.17,1-1.8l-.19-.57a1.13,1.13,0,0,1-.05-.35,4,4,0,0,1,.67-1.1c.44-.61.73-.92.87-.92s.29.11.4.34a1.58,1.58,0,0,1,.16.69,6.68,6.68,0,0,1-.34,1.52,22.84,22.84,0,0,1-1.07,2.76,25.58,25.58,0,0,1-1.79,3.29,13.87,13.87,0,0,1-2,2.5A10.32,10.32,0,0,1,192,54.45a2.86,2.86,0,0,1-1.25.51,1.57,1.57,0,0,1-1-.41,2.74,2.74,0,0,1-.59-.64,1.54,1.54,0,0,1-.23-.63,4.42,4.42,0,0,1-.06-.78,6.09,6.09,0,0,1,.53-2.24A33.52,33.52,0,0,1,191,47.07c-2.18,2.65-3.86,4.58-5.06,5.79s-2.07,1.81-2.62,1.81a1.08,1.08,0,0,1-.93-.66A3.06,3.06,0,0,1,182,52.43Z"/><path d="M199.36,51.12v.28a1.5,1.5,0,0,0,.33,1,1.07,1.07,0,0,0,.85.37,2.69,2.69,0,0,0,1.14-.26,6.18,6.18,0,0,0,1.18-.68c.39-.29.86-.67,1.42-1.15v.69a13.58,13.58,0,0,1-2.38,2.34,3.79,3.79,0,0,1-2.26.81,1.89,1.89,0,0,1-1.58-.77,3.46,3.46,0,0,1-.58-2.12,4.19,4.19,0,0,1,.55-2.14,8,8,0,0,1,1.79-2,7,7,0,0,1,1.7-1.1A3.74,3.74,0,0,1,203,46a1.3,1.3,0,0,1,.83.24.85.85,0,0,1,.31.72,2.32,2.32,0,0,1-.53,1.41,6.05,6.05,0,0,1-1.61,1.4A16.57,16.57,0,0,1,199.36,51.12Zm.12-.73a6.68,6.68,0,0,0,1.73-1,5.14,5.14,0,0,0,1.06-1.12,1.79,1.79,0,0,0,.34-.78c0-.17-.08-.26-.24-.26a1.65,1.65,0,0,0-.65.26A5.51,5.51,0,0,0,200,49.16,3,3,0,0,0,199.48,50.39Z"/><path d="M209.65,50.59v.83c-1.56,2.07-2.84,3.11-3.82,3.11a1.38,1.38,0,0,1-1.25-.87,5,5,0,0,1-.45-2.29,8.86,8.86,0,0,1,.53-2.72,19.13,19.13,0,0,1,1.45-3.2A21,21,0,0,1,208,42.62a7,7,0,0,1,1.81-1.69,1.19,1.19,0,0,1,.52-.2.31.31,0,0,1,.32.21,2.23,2.23,0,0,1,.08.71,8.34,8.34,0,0,1-1.27,3.83,23.31,23.31,0,0,1-3.54,4.65,4.66,4.66,0,0,0-.11.9,1.94,1.94,0,0,0,.31,1.16,1,1,0,0,0,.86.45,1.08,1.08,0,0,0,.6-.22,5,5,0,0,0,.69-.54Zm-3.36-2a10.56,10.56,0,0,0,1.13-1.31,15,15,0,0,0,1-1.56,14.11,14.11,0,0,0,.76-1.49,3,3,0,0,0,.27-1c0-.17-.06-.26-.18-.26a.64.64,0,0,0-.26.13,7.2,7.2,0,0,0-1.53,2.19A13.09,13.09,0,0,0,206.29,48.57Z"/><path d="M216.31,50.73v.76c-.8.78-1.45,1.39-2,1.83a8.79,8.79,0,0,1-1.41,1,2.68,2.68,0,0,1-1.29.36,1.59,1.59,0,0,1-1.13-.49,3.2,3.2,0,0,1-.81-1.28,4.72,4.72,0,0,1-.3-1.68,2.77,2.77,0,0,1,.34-1.36,8,8,0,0,1,1.3-1.54,13.27,13.27,0,0,1,2.13-1.73,3.26,3.26,0,0,1,1.55-.61.9.9,0,0,1,.68.28.93.93,0,0,1,.28.7,2.37,2.37,0,0,1-.37,1,6,6,0,0,1-.83,1.15c-.31.32-.55.49-.73.49s-.29-.11-.29-.32c0-.06,0-.12,0-.17V49c0-.09,0-.14-.09-.16a.31.31,0,0,0-.23.09c-.75.52-1.27.89-1.54,1.1a3.4,3.4,0,0,0-.66.65,1.15,1.15,0,0,0-.24.68,1.4,1.4,0,0,0,.43,1.08,1.5,1.5,0,0,0,1.11.42,3.63,3.63,0,0,0,1.7-.55A18.06,18.06,0,0,0,216.31,50.73Z"/><path d="M223.49,50.69v.75a6.1,6.1,0,0,1-1.19.9,2.66,2.66,0,0,1-1.3.18c-1,1.15-1.83,1.73-2.57,1.73a1.75,1.75,0,0,1-1.14-.42,2.8,2.8,0,0,1-.83-1.13,4.13,4.13,0,0,1-.31-1.61,3.37,3.37,0,0,1,.48-1.59,7,7,0,0,1,1.24-1.63,6.68,6.68,0,0,1,1.62-1.23,3.41,3.41,0,0,1,1.6-.46,1.79,1.79,0,0,1,.84.16.5.5,0,0,1,.3.45.87.87,0,0,1-.26.52.91.91,0,0,1,.58.3,1.28,1.28,0,0,1,.16.76,4.7,4.7,0,0,1-.25,1.35,6.9,6.9,0,0,1-.69,1.54l.2.2h.17a.88.88,0,0,0,.38-.09,2.63,2.63,0,0,0,.33-.2Zm-2.32-2.95c-.62.37-1.15.71-1.59,1a7.87,7.87,0,0,0-1.12.92,2.43,2.43,0,0,0-.62.94c-.19.84-.28,1.29-.28,1.36,0,.49.34.74,1,.74a3.62,3.62,0,0,0,1.62-.83,2.9,2.9,0,0,1-.19-1,3.78,3.78,0,0,1,.29-1.44A11.27,11.27,0,0,1,221.17,47.74Z"/><path d="M228.6,52.25c1-.91,1.92-1.71,2.66-2.39s1.32-1.21,1.74-1.6.8-.71,1.12-1a1.67,1.67,0,0,1,.62-.41c.17,0,.34.17.49.54a2.29,2.29,0,0,1,.24.87c0,.14-.24.47-.71,1s-.83.95-1.07,1.26a1.62,1.62,0,0,0-.35,1,.61.61,0,0,0,.2.49.69.69,0,0,0,.48.19,1.43,1.43,0,0,0,.78-.34c.31-.23.78-.63,1.43-1.2v.79q-1,.93-1.77,1.59a8.75,8.75,0,0,1-1.39,1,2.12,2.12,0,0,1-1,.33.72.72,0,0,1-.58-.26.94.94,0,0,1-.24-.66,2.35,2.35,0,0,1,.13-.77,6.89,6.89,0,0,1,.42-.93c.19-.36.43-.8.74-1.3l.84-1.39c-.76.62-1.44,1.22-2,1.8s-1.07,1.08-1.45,1.51l-.89,1a1.69,1.69,0,0,1-1.16.69c-.39,0-.59-.27-.59-.83a3.49,3.49,0,0,1,.44-1.21c.29-.58.71-1.32,1.25-2.21a.53.53,0,0,0,.06-.28c0-.15-.07-.23-.22-.23s-.4.16-.71.47-.91,1-1.81,2a11.31,11.31,0,0,0-.83,1.08c-.31.44-.54.74-.67.89a.58.58,0,0,1-.4.23c-.27,0-.53-.24-.76-.72a3.85,3.85,0,0,1-.35-1.68,2.79,2.79,0,0,1,.24-1.2,10.64,10.64,0,0,1,.71-1.25,10.8,10.8,0,0,1,1.23-1.56,1.44,1.44,0,0,1,1-.47,1.15,1.15,0,0,1,.55.13.41.41,0,0,1,.23.36,1.72,1.72,0,0,1-.41.77,8.71,8.71,0,0,1-1,1.11,4.16,4.16,0,0,0-.64.81,1.52,1.52,0,0,0-.3.69c0,.2.07.3.23.3s.45-.26,1-.79l1.7-1.71a18.36,18.36,0,0,1,1.72-1.54,2.33,2.33,0,0,1,1.34-.61.68.68,0,0,1,.55.25.91.91,0,0,1,.22.63,2.51,2.51,0,0,1-.33.89,18,18,0,0,1-1,1.59C229.83,50.59,229.28,51.35,228.6,52.25Z"/><path d="M238,51.12v.28a1.5,1.5,0,0,0,.33,1,1.06,1.06,0,0,0,.85.37,2.69,2.69,0,0,0,1.14-.26,6.11,6.11,0,0,0,1.17-.68c.39-.29.87-.67,1.43-1.15v.69a13.93,13.93,0,0,1-2.38,2.34,3.79,3.79,0,0,1-2.26.81,1.89,1.89,0,0,1-1.58-.77,3.46,3.46,0,0,1-.58-2.12,4.28,4.28,0,0,1,.54-2.14,8.22,8.22,0,0,1,1.8-2,7,7,0,0,1,1.7-1.1,3.73,3.73,0,0,1,1.5-.37,1.35,1.35,0,0,1,.84.24.87.87,0,0,1,.31.72,2.32,2.32,0,0,1-.53,1.41,6.05,6.05,0,0,1-1.61,1.4A16.57,16.57,0,0,1,238,51.12Zm.11-.73a6.52,6.52,0,0,0,1.73-1,5,5,0,0,0,1.07-1.12,1.79,1.79,0,0,0,.34-.78c0-.17-.08-.26-.24-.26a1.73,1.73,0,0,0-.66.26,5.29,5.29,0,0,0-.92.68,4.62,4.62,0,0,0-.83,1A3.21,3.21,0,0,0,238.06,50.39Z"/><path d="M258.56,49.62c-.9,0-1.56.05-2,.05-.64,0-1.53,0-2.67-.05-.24.27-.53.57-.88.93s-.67.68-1,1l-.79.77c-.23.22-.41.39-.55.54l-1.62,1.58a7,7,0,0,1-.79.67,1.37,1.37,0,0,1-.77.3q-.39,0-.39-.36a2.64,2.64,0,0,1,.56-1.22A8.46,8.46,0,0,1,249,52.37a2,2,0,0,1,1.16-.62.83.83,0,0,1,.35.11l2.13-2.28c-.27,0-.62-.06-1.06-.08a3.53,3.53,0,0,1-.87-.09.36.36,0,0,1-.23-.38c0-.32.35-.83,1-1.52a2.75,2.75,0,0,1,1.05-.73,8,8,0,0,1,1.89-.17,4.83,4.83,0,0,0-1.16.27.55.55,0,0,0-.38.45h1.32l.66,0c1.22-1.2,2.34-2.24,3.34-3.13a37.44,37.44,0,0,1,3.18-2.52,30.71,30.71,0,0,1,3.55-2.2,1.62,1.62,0,0,1,.37,1,2.21,2.21,0,0,1-.29,1c-.19.38-.59,1.1-1.21,2.15s-1.24,2.17-1.88,3.35h.52l.45,0a6.53,6.53,0,0,1,.78,0c.09,0,.14.09.14.22a.7.7,0,0,1-.18.32c-.11.16-.32.41-.61.77s-.58.71-.85,1.08l-1.65.14a14.56,14.56,0,0,0-1.32,2.78c0,.31.16.46.48.46a9.46,9.46,0,0,0,2-1l-.09.6-1.43,1.09c-.34.27-.64.49-.89.67a4.58,4.58,0,0,1-.68.39,1.77,1.77,0,0,1-.63.13,1.09,1.09,0,0,1-.73-.34,1.3,1.3,0,0,1-.36-1,2.36,2.36,0,0,1,.19-.73c.13-.32.27-.63.41-.92Zm-2.12-2.55,3.64-.06,1-1.77.88-1.46c.32-.53.59-1,.82-1.34l.76-1.25c-.54.34-1.09.71-1.65,1.12s-1.2.91-1.9,1.49-1.33,1.12-1.88,1.62S257,46.47,256.44,47.07Z"/><path d="M270.77,50.73v.73a3.86,3.86,0,0,1-1.84.75,2.89,2.89,0,0,1-.79-.13A11.94,11.94,0,0,1,266.4,54a2.3,2.3,0,0,1-1.45.59,1.42,1.42,0,0,1-1.3-.88,4.89,4.89,0,0,1-.45-2.21,8.63,8.63,0,0,1,1.08-3.89,21.15,21.15,0,0,1,2.6-3.94,23.92,23.92,0,0,1,2.94-3,4.45,4.45,0,0,1,1.94-1.2q.48,0,.48.66,0,3-7.55,10.27c0,.13,0,.4,0,.8,0,1,.28,1.55.83,1.55a1,1,0,0,0,.66-.27,9.85,9.85,0,0,0,1-1,2.6,2.6,0,0,1-.27-.9,2.37,2.37,0,0,1,.51-1.34,6.2,6.2,0,0,1,1.15-1.24,1.88,1.88,0,0,1,.94-.52c.31,0,.46.22.46.66a3.47,3.47,0,0,1-.27,1.21,11.32,11.32,0,0,1-.76,1.62,2,2,0,0,0,.3.23.61.61,0,0,0,.34.08A2.27,2.27,0,0,0,270.77,50.73Zm-5.71-1.68a12.25,12.25,0,0,0,1.18-1.2c.39-.46,1-1.16,1.72-2.11s1.3-1.68,1.71-2.29a15.41,15.41,0,0,0,.94-1.52,2.26,2.26,0,0,0,.31-.83c0-.11,0-.17-.09-.17s-.5.27-1,.81A20.08,20.08,0,0,0,268,44c-.92,1.31-1.59,2.29-2,3A8.93,8.93,0,0,0,265.06,49.05Z"/><path d="M278,50.69v.75a6.1,6.1,0,0,1-1.19.9,2.63,2.63,0,0,1-1.29.18c-1,1.15-1.83,1.73-2.58,1.73a1.77,1.77,0,0,1-1.14-.42A2.8,2.8,0,0,1,271,52.7a4.13,4.13,0,0,1-.31-1.61,3.37,3.37,0,0,1,.48-1.59,7,7,0,0,1,1.24-1.63A6.68,6.68,0,0,1,274,46.64a3.42,3.42,0,0,1,1.61-.46,1.75,1.75,0,0,1,.83.16.5.5,0,0,1,.3.45.87.87,0,0,1-.26.52,1,1,0,0,1,.59.3,1.38,1.38,0,0,1,.15.76,4.7,4.7,0,0,1-.25,1.35,6.9,6.9,0,0,1-.69,1.54l.2.2h.17a.88.88,0,0,0,.38-.09,2.63,2.63,0,0,0,.33-.2Zm-2.32-2.95c-.62.37-1.15.71-1.59,1a7.87,7.87,0,0,0-1.12.92,2.43,2.43,0,0,0-.62.94c-.19.84-.28,1.29-.28,1.36,0,.49.34.74,1,.74a3.62,3.62,0,0,0,1.62-.83,2.9,2.9,0,0,1-.19-1,3.78,3.78,0,0,1,.29-1.44A11.27,11.27,0,0,1,275.67,47.74Z"/><path d="M279.28,48.7a13.71,13.71,0,0,1,3.31-2.3,6.5,6.5,0,0,1,2.48-.75.61.61,0,0,1,.44.19,1.47,1.47,0,0,1,.32.46,1,1,0,0,1,.12.38.32.32,0,0,1-.16.3,3,3,0,0,1-.55.23c.06.12.12.27.2.46s.15.34.2.45a1,1,0,0,1,.06.31,2.38,2.38,0,0,1-.54,1c-.36.49-.62.85-.76,1.08a1.54,1.54,0,0,0-.22.85c0,.56.25.84.76.84a4.85,4.85,0,0,0,2.46-1.48v.69c-1.89,2.1-3.25,3.16-4.07,3.16a.68.68,0,0,1-.62-.29,1.6,1.6,0,0,1-.18-.85,7.9,7.9,0,0,1,.64-2.57c-1.1,1.21-1.91,2.08-2.44,2.59a2.21,2.21,0,0,1-1.32.77c-.16,0-.37-.14-.61-.43a3.88,3.88,0,0,1-.66-1.11,3.58,3.58,0,0,1-.29-1.4,3.64,3.64,0,0,1,.1-.89,2.18,2.18,0,0,1,.4-.72A9.29,9.29,0,0,1,279.28,48.7Zm5.38-1.23a23.6,23.6,0,0,0-4.16,2.27,2.52,2.52,0,0,0-1.24,1.92,1.22,1.22,0,0,0,.12.58.38.38,0,0,0,.34.24,1.39,1.39,0,0,0,.44-.16,8.94,8.94,0,0,0,2.15-1.82C283,49.76,283.75,48.75,284.66,47.47Z"/><path d="M287.19,51.58v-.73a11.39,11.39,0,0,0,.92-1.23,1.25,1.25,0,0,1-.53-.3.83.83,0,0,1-.16-.54,2.2,2.2,0,0,1,.34-1,5.74,5.74,0,0,1,.83-1.16,2.51,2.51,0,0,1,.9-.69.56.56,0,0,1,.3-.08c.15,0,.23.07.23.21a2.18,2.18,0,0,1-.35.78,26.41,26.41,0,0,1,2.92-.36.82.82,0,0,1,.32,0,.8.8,0,0,1,.32.47,2.43,2.43,0,0,1,.12.74.85.85,0,0,1-.21.51,7.14,7.14,0,0,1-.71.81,6.45,6.45,0,0,0-1,1.39,2.72,2.72,0,0,0-.4,1.13c0,.36.21.53.65.53a5.15,5.15,0,0,0,2.38-1.39v.75c-.62.65-1.14,1.17-1.54,1.54a7.73,7.73,0,0,1-1.12.89,1.78,1.78,0,0,1-.92.33.93.93,0,0,1-.79-.43,2.1,2.1,0,0,1-.31-1.25,3.09,3.09,0,0,1,.24-1.1,7.89,7.89,0,0,1,.73-1.34,15.4,15.4,0,0,1,1.07-1.45l-.71.15-.83.15-.67.12A8.27,8.27,0,0,1,287.19,51.58Z"/><path d="M299.15,50.73c-.66.75-1.25,1.39-1.77,1.91a15.93,15.93,0,0,1-1.27,1.18,1.49,1.49,0,0,1-.67.38c-.19,0-.41-.15-.66-.47a4.21,4.21,0,0,1-.62-1.2,4.48,4.48,0,0,1-.26-1.48,3.22,3.22,0,0,1,1.06-2.2,9.55,9.55,0,0,1,2.4-1.83,4.85,4.85,0,0,1,2-.73,1.43,1.43,0,0,1,1.08.69q.87-1.8,1.65-3.21a19,19,0,0,1,1.3-2.09c.36-.45.61-.68.76-.68a.6.6,0,0,1,.45.24.8.8,0,0,1,.21.54,5.06,5.06,0,0,1-.85,2c-.57,1-1.13,1.87-1.69,2.77a25.67,25.67,0,0,0-1.43,2.65,6,6,0,0,0-.59,2.42c0,.68.22,1,.65,1a1.79,1.79,0,0,0,1-.44,21.56,21.56,0,0,0,1.7-1.49v.82q-2.43,3.13-3.75,3.14a.79.79,0,0,1-.75-.41,2.41,2.41,0,0,1-.23-1.2A11.12,11.12,0,0,1,299.15,50.73ZM300,48a15,15,0,0,0-2.35,1.09,9.66,9.66,0,0,0-1.63,1,2,2,0,0,0-.44.84,3.77,3.77,0,0,0-.19.93.41.41,0,0,0,.12.31.33.33,0,0,0,.28.13.72.72,0,0,0,.36-.14,7,7,0,0,0,.64-.52l.58-.51.85-.72c.44-.37.76-.67,1-.87a3.28,3.28,0,0,0,.51-.71A2.59,2.59,0,0,0,300,48Z"/><path class="cls-6" d="M287.19,78.05l-3-.65c-7.76,2-15.77,4.85-24.92,7.76-4.6-2.2-11.28-3.78-18.1-5.84-.62-.63-.7-1.84-1.61-1.79a.31.31,0,0,0-.29.11l.13.87a.3.3,0,0,1-.14.2c-1.12-.07-3.61-1.22-4.78-1.34l-5.95-3.44a4.77,4.77,0,0,1-1.75-2.84c-.74-1.92-1.78-3.41-2.35-5.23,0,0-.45-.42-.41-.51l.63-.45,0-.5s-.11-.19-.22-.3c2.74-1.39,6-1.62,8.91-2.82,0-.09,0-.14,0-.27-.55-.7-1.94-.72-2.9-.83a112.54,112.54,0,0,1-11.64,1.93c-.77,0-1.34-.32-2.06-.31l-.46.76L202.7,64.35a6.17,6.17,0,0,0,4.22,1.12q3.9-.41,7.69-.53l3.29-.23c1.71,4.57,2.63,9.62,4,14.45,5.63,3,9,8.14,14.56,11.46.4.26.88.33,1.07.76a.39.39,0,0,1-.11.39c-13.52,1.62-27.12,2.79-40.27,5.13a13.44,13.44,0,0,0,5.55,2.22c11,.4,22.24-4.69,32.85-.67,1.83.83,3.62,1.75,5.37,2.52,2.41,1.19,3.48,1.55,4.76,1.11,4.26.14,3.28-1.62,3.24-2.18l.92-.83a3.79,3.79,0,0,0-1.09-2.51.65.65,0,0,1-.27-.24s0-.14.06-.16A10.59,10.59,0,0,1,254,97.81c.59.9.23,2.44-.23,3.48a5.77,5.77,0,0,0,.77-3.1l.06-.15a.8.8,0,0,1,.6-.28c3.05,1.29,6.76.9,9.83,2a.26.26,0,0,0,.26,0c0-.1-.09-.14-.08-.28,1-.39,2.59-.06,3.42-1.21a1.49,1.49,0,0,0-.12-1.76c-.56-1.17-1.46-1.83-1.88-2.88,2.62.13,4.51,1.56,6.79,1,3.91-.28,3.89-1.36,3.76-2.23a.81.81,0,0,1,.23-.23c-.53-1.27-2.15-2.06-3-3.22-1.35-1.15-3-1.4-4.56-1.82,0,0,0,0,0-.17,5.85-2.76,12.34-5,18-8l-.61-1-.06,0Zm-.38.36c-9.34,0-18,5.14-27.17,7.37a.22.22,0,0,0-.13.17c1.87,2.7,6.23,2.59,9.39,3.74,1.18-.09,2.51-1,3.54-1.24-1.57-1-3.83-1-5.64-1.69-.05-.06,0-.09,0-.18l1.63.22c0-.21-.11-.26-.16-.42a.38.38,0,0,1,.05-.23l18.33-7.49c.1.11.27.32.49.3.1-.25-.08-.43-.32-.55ZM232,60.84c-4.07-.46-7.75.87-11.54,1.48l2.83.92L232,60.86l-.06,0Zm47.6,23.84a6.6,6.6,0,0,1,1.53,4.07,5.53,5.53,0,0,0-1.46-4.08Zm-55.83-21c-.16,0-.15.23-.29.21a21.29,21.29,0,0,0-6.28-1.5c1.37.91,3.72.54,4.94,1.75,0,0,0,.14-.05.23-.45.44-1.2.16-1.67.37a.58.58,0,0,0-.37,0,79.07,79.07,0,0,0,4.61,11.93c.76,2.14,3.56,3.62,5.57,5.09,12.18,7,25,11.73,38.18,15.81a.38.38,0,0,0,.16-.12l-.07-.48c-1.53-2.68-3.8-4.89-6-7.36-.41-.23-.53-.59-.9-.73l-1.25.28,0,.47c-.32.28.39-.28-.21.07l-.51-.44c-.13,0-.24.08-.43.19l0,.48c-.32,0-.35-.31-.53-.49l-4,1c-.64-.45-.61-1.4-1-1.93-.11-.29-.39-.5-.3-.82a11.61,11.61,0,0,1,3.42-1.21.47.47,0,0,1,.31,0l1.85-.74c0-.06-.07-.09,0-.19-5-2.38-10.51-3.34-15.74-5.27l-1.38-.41c-.19-.07-.26.11-.43.19L239.92,78c-.16-.06.18.17-.07.19l.33,1.4c0,.1-.11.1-.17.16l-.42-.49a16.71,16.71,0,0,1-5.33-1.57l-6.8-4c-1-2.52-2.8-6-3.83-8.5.1-.28.51-.13.73-.33,0,0,.07-.12.1-.18,0-.27-.51-.44-.65-.74,0,0,.08-.22-.09-.25Zm57.43,22a.39.39,0,0,1,.12.22l-.12-.22Zm.4,1,.14.48-.14-.48ZM219,63.61c-5.14-1.4-10.1.59-15.06,1l1.62.54.35-.26L219,63.65l0,0ZM281.43,90l-.71,2.34.71-2.34Zm-8.31-1.09a9.78,9.78,0,0,0-3.49,1.43l-.75.18,4.24-1.61Zm2.62,2.28-1.15-.36a.23.23,0,0,0-.25.3c.09,0,.18.17.27.21l.82-.19c.11.11.18.2.32.19s.05-.13,0-.15Zm-2.46-.28c-2.9,2.48-6-.09-9.43-.55a7.39,7.39,0,0,1,1.6.67c1.42,2.5,4.56,3.18,7.34,3.26a1.34,1.34,0,0,1,1.3-1.26,1.55,1.55,0,0,1-.34-2.16l-.47,0Zm-8.84-1.6-2.13-.59,2.13.59Zm-41.76-13.4c0,1.71,1.73,2.72,3.07,3.9,10.08,7.35,21.5,11.11,32.54,15.62,2.83.92,5.69,1.67,8.36,2.53a223.23,223.23,0,0,1-35-14.32c-3.2-2.3-7.95-4.37-9-7.73ZM252,87.55l-1.4-.35a1.81,1.81,0,0,0-.18,1.71c.16.31.47.54.76.43a1.93,1.93,0,0,0,.94-1.75l-.12,0Zm-5.23-1.88L246,85.6a1.65,1.65,0,0,0-.43,1.72.64.64,0,0,0,.48.43c.38,0,.61-.3.83-.61.11-.57.29-1-.09-1.46Zm-2.29-.61a.82.82,0,0,0-.66,0,1.54,1.54,0,0,0-.39,1.42c.19.36.35.67.61.66a.71.71,0,0,0,.25,0,2.09,2.09,0,0,0,.46-1.61c-.12-.23-.09-.32-.2-.4l-.07,0Zm8.31,3.22a.22.22,0,0,0-.21.07l-.24,1.3,1.14.57c.29-.11.1-.53,0-.74-.32-.37-.35-.77-.66-1.18l-.06,0Zm-10.21-3.83-.43-.09c-.42,0-.69.6-.68,1a3.71,3.71,0,0,0,.07.66.84.84,0,0,0,.63.42c.59,0,.55-.79.69-1.28a1.22,1.22,0,0,0-.25-.66Zm-2.13-.81-.13,0a.83.83,0,0,0-.77.53,1.31,1.31,0,0,0,.16,1.49l.55.06c.47-.22.45-1,.49-1.6a.63.63,0,0,0-.3-.43Zm-1.88-.51H238a1.05,1.05,0,0,0-.46,1.22.93.93,0,0,0,.49.79c.51,0,.62-.8.77-1.21s-.11-.54-.11-.75l-.12-.05Zm-6.93-2.63-.36.08c-.28-.29.21.4-.07-.17-.23,0-.34.23-.39.46a3,3,0,0,0,.07.38l.6.48c.1,0,.15,0,.23,0l.15-.69a.5.5,0,0,0-.2-.5ZM222,77.59a1.77,1.77,0,0,0,.75,1.61c5.88,3,9.19,8.59,15.14,11.72.14.12.19.17.21.29l.09.64c-.11.28-.23.59-.58.67-13.31.88-25.88,2.8-38.73,4.46l-.42.34,2.21,1c.16,0,.21-.1.43-.19l1.94.23.07-.19,27.09-3c.44.16.27.71.44,1l5.15.15c0-.48-.26-.84-.67-1.25s-1-.42-1.22-.85a.32.32,0,0,1,.18-.18l7.59,2.57,3.91-1.57c.07,0,.11-.1.14-.19a1.75,1.75,0,0,0-.13-.23l-.75-.46a.13.13,0,0,1,.06-.16,3.88,3.88,0,0,1,2.29,1.11,5.29,5.29,0,0,0,2.72.74l0-.09.08-.22A41.06,41.06,0,0,0,264.64,99c.07.1,0,.26,0,.47l.22-.42,1.83-.13c-15.19-5.49-31.85-10-44.75-21.28ZM254,97.5l-.48-.15.48.15Zm-10.33-3.79L241.44,93l2.21.76Zm11.25,4.47a6.52,6.52,0,0,1-1.73,4.7A5.81,5.81,0,0,0,255,98.3a.38.38,0,0,1-.08-.17l0,.05Zm-8.2-2.74-.53-.13c-.2.25.32.12.38.15s.16.13.25.2c.07-.12,0-.16-.06-.24l0,0Zm1.6,1.14-.36-.1.23.45.15.06.13-.35-.15-.06Zm-2.87-.89c-2.81,1.69-6.05,1.48-9.06-.19A32.68,32.68,0,0,0,243.14,98c0-.28-.57-.28-.7-.58-.06,0-.07-.1-.06-.24l3.05-1.46Zm2.23,1.88h-.78l-.19.43c0,.17.2.4.35.67l1.89.28c.31,0,.12-.31,0-.46-.31-.33-.56-.32-.83-.56a.29.29,0,0,1-.38,0c0-.07,0-.2,0-.3Zm-1.62.26c-2.95,2.63-6.61-.17-9.81-.87a11.53,11.53,0,0,0-2.49,0c3.73,1.94,7.52,4.75,11.75,4.52.21-.28,0-.75.42-.94.27-.15.55-.23.57-.47a13,13,0,0,0-.39-1.32c-.07-.39.22-.6.08-.9Z"/><path d="M31.82,16.85a5.43,5.43,0,0,0,2.61.69c1.26,0,2-.59,2-1.47s-.55-1.3-1.92-1.79c-1.78-.64-2.91-1.59-2.91-3.14C31.57,9.38,33,8,35.37,8a5.71,5.71,0,0,1,2.6.54l-.48,1.58a4.72,4.72,0,0,0-2.15-.51c-1.25,0-1.79.67-1.79,1.3,0,.83.62,1.21,2.06,1.78,1.88.7,2.79,1.64,2.79,3.2,0,1.73-1.31,3.23-4.1,3.23a6.44,6.44,0,0,1-2.91-.67Z"/><path d="M44.57,19l-.12-.86H44.4a2.93,2.93,0,0,1-2.31,1,2.32,2.32,0,0,1-2.45-2.33c0-2,1.75-3,4.63-2.94v-.13c0-.51-.21-1.36-1.58-1.36a4.1,4.1,0,0,0-2.1.58l-.39-1.28A5.56,5.56,0,0,1,43,11c2.5,0,3.22,1.58,3.22,3.28v2.82A12.53,12.53,0,0,0,46.35,19Zm-.25-3.81c-1.39,0-2.72.27-2.72,1.46a1,1,0,0,0,1.12,1.12,1.58,1.58,0,0,0,1.53-1.07,1.44,1.44,0,0,0,.07-.44Z"/><path d="M48.32,13.53c0-.9,0-1.65-.07-2.33H50L50,12.36h0A2.69,2.69,0,0,1,52.48,11a2.25,2.25,0,0,1,2.16,1.44h0a3,3,0,0,1,1-1A2.63,2.63,0,0,1,57.2,11c1.3,0,2.61.88,2.61,3.38V19H57.89V14.69c0-1.29-.45-2.06-1.39-2.06a1.5,1.5,0,0,0-1.38,1,2.69,2.69,0,0,0-.1.66V19H53.1V14.49c0-1.09-.43-1.86-1.34-1.86a1.54,1.54,0,0,0-1.41,1.12,1.69,1.69,0,0,0-.11.64V19H48.32Z"/><path d="M61.88,13.8c0-1,0-1.86-.06-2.6h1.73l.1,1.21h0A3,3,0,0,1,66.35,11c1.79,0,3.28,1.54,3.28,4,0,2.82-1.77,4.18-3.55,4.18a2.56,2.56,0,0,1-2.19-1h0v4h-2Zm2,1.93a2,2,0,0,0,.07.55,1.78,1.78,0,0,0,1.73,1.38c1.24,0,2-1,2-2.58,0-1.38-.67-2.5-1.94-2.5A1.84,1.84,0,0,0,63.93,14a2.09,2.09,0,0,0-.08.49Z"/><path d="M71.24,7.64h2V19h-2Z"/><path d="M76.75,15.65a2.12,2.12,0,0,0,2.4,2,5.94,5.94,0,0,0,2.16-.35l.29,1.36a7.37,7.37,0,0,1-2.72.48,3.69,3.69,0,0,1-4-3.94c0-2.16,1.31-4.19,3.81-4.19S82,13.11,82,14.82a5,5,0,0,1-.06.83Zm3.42-1.37a1.67,1.67,0,0,0-1.61-1.91,1.93,1.93,0,0,0-1.81,1.91Z"/><path d="M87,16.85a5.42,5.42,0,0,0,2.6.69c1.27,0,2-.59,2-1.47s-.54-1.3-1.92-1.79c-1.77-.64-2.91-1.59-2.91-3.14,0-1.76,1.47-3.1,3.81-3.1a5.66,5.66,0,0,1,2.59.54l-.48,1.58a4.63,4.63,0,0,0-2.14-.51c-1.25,0-1.8.67-1.8,1.3,0,.83.63,1.21,2.07,1.78,1.87.7,2.78,1.64,2.78,3.2,0,1.73-1.31,3.23-4.09,3.23a6.48,6.48,0,0,1-2.92-.67Z"/><path d="M97.15,14.63h0c.19-.3.42-.64.63-.91l1.88-2.52h2.37l-2.88,3.19,3.3,4.61h-2.42l-2.24-3.44-.67.78V19h-2V7.64h2Z"/><path d="M104.6,15.65a2.13,2.13,0,0,0,2.41,2,6,6,0,0,0,2.16-.35l.28,1.36a7.37,7.37,0,0,1-2.72.48,3.68,3.68,0,0,1-4-3.94c0-2.16,1.31-4.19,3.81-4.19s3.36,2.08,3.36,3.79a4.81,4.81,0,0,1-.07.83ZM108,14.28a1.68,1.68,0,0,0-1.62-1.91,1.94,1.94,0,0,0-1.81,1.91Z"/><path d="M113.72,9V11.2h1.88v1.48h-1.88v3.44c0,.94.26,1.44,1,1.44a2.82,2.82,0,0,0,.77-.1l0,1.51a4.39,4.39,0,0,1-1.42.19,2.29,2.29,0,0,1-1.7-.64,3.14,3.14,0,0,1-.61-2.18V12.68h-1.12V11.2h1.12V9.44Z"/><path d="M122.72,18.76a5.75,5.75,0,0,1-2.21.4,3.75,3.75,0,0,1-4-4A4,4,0,0,1,120.83,11a4.82,4.82,0,0,1,1.9.37l-.35,1.47a3.53,3.53,0,0,0-1.49-.3,2.32,2.32,0,0,0-2.38,2.52,2.31,2.31,0,0,0,2.38,2.52,3.9,3.9,0,0,0,1.56-.31Z"/><path d="M124.17,7.64h2v4.64h0a2.63,2.63,0,0,1,1-.9,2.74,2.74,0,0,1,1.35-.35c1.33,0,2.72.88,2.72,3.38V19h-2V14.63c0-1.14-.41-2-1.5-2a1.59,1.59,0,0,0-1.52,1.1,1.53,1.53,0,0,0-.08.59V19h-2Z"/><path d="M221.82,18.68a6.8,6.8,0,0,1-2.78.48c-3.43,0-5.51-2.15-5.51-5.43A5.42,5.42,0,0,1,219.29,8a6.18,6.18,0,0,1,2.63.48l-.43,1.56a5.34,5.34,0,0,0-2.12-.41c-2.19,0-3.77,1.37-3.77,4a3.54,3.54,0,0,0,3.76,3.89,5.48,5.48,0,0,0,2.14-.4Z"/><path d="M223.37,13.72c0-1.06,0-1.81-.06-2.52H225l.07,1.49h.06A2.33,2.33,0,0,1,227.28,11a1.66,1.66,0,0,1,.46.05v1.85a2.84,2.84,0,0,0-.57-.06,1.73,1.73,0,0,0-1.76,1.49,2.69,2.69,0,0,0-.07.61v4h-2Z"/><path d="M230.32,15.65a2.11,2.11,0,0,0,2.4,2,5.94,5.94,0,0,0,2.16-.35l.29,1.36a7.41,7.41,0,0,1-2.72.48,3.69,3.69,0,0,1-4-3.94c0-2.16,1.31-4.19,3.81-4.19s3.36,2.08,3.36,3.79a4,4,0,0,1-.07.83Zm3.42-1.37a1.67,1.67,0,0,0-1.61-1.91,1.93,1.93,0,0,0-1.81,1.91Z"/><path d="M241.57,19l-.13-.86h-.05a2.92,2.92,0,0,1-2.3,1,2.32,2.32,0,0,1-2.45-2.33c0-2,1.74-3,4.62-2.94v-.13c0-.51-.21-1.36-1.58-1.36a4.1,4.1,0,0,0-2.1.58l-.38-1.28A5.49,5.49,0,0,1,240,11c2.5,0,3.22,1.58,3.22,3.28v2.82a12.53,12.53,0,0,0,.11,1.87Zm-.26-3.81c-1.39,0-2.72.27-2.72,1.46a1,1,0,0,0,1.12,1.12,1.61,1.61,0,0,0,1.54-1.07,1.78,1.78,0,0,0,.06-.44Z"/><path d="M247.47,9V11.2h1.87v1.48h-1.87v3.44c0,.94.26,1.44,1,1.44a2.88,2.88,0,0,0,.77-.1l0,1.51a4.41,4.41,0,0,1-1.43.19,2.27,2.27,0,0,1-1.69-.64,3.09,3.09,0,0,1-.61-2.18V12.68h-1.12V11.2h1.12V9.44Z"/><path d="M252.93,9a1,1,0,0,1-1.13,1.05A1,1,0,0,1,250.72,9,1,1,0,0,1,251.82,8,1.06,1.06,0,0,1,252.93,9Zm-2.1,10V11.2h2V19Z"/><path d="M262.34,15a3.87,3.87,0,0,1-4,4.15,3.76,3.76,0,0,1-3.9-4,3.85,3.85,0,0,1,4-4.13A3.74,3.74,0,0,1,262.34,15Zm-5.88.08c0,1.51.74,2.64,1.94,2.64s1.9-1.1,1.9-2.67c0-1.22-.54-2.61-1.89-2.61S256.46,13.81,256.46,15.11Z"/><path d="M264,13.53c0-.9,0-1.65-.07-2.33h1.73l.1,1.17h.05A2.79,2.79,0,0,1,268.24,11c1.36,0,2.77.88,2.77,3.34V19h-2V14.6c0-1.12-.42-2-1.49-2A1.66,1.66,0,0,0,266,13.78a2.16,2.16,0,0,0-.08.64V19h-2Z"/></g></g></svg>