<svg id="Art" xmlns="http://www.w3.org/2000/svg" viewBox="0 0 180.18 90"><defs><style>.cls-1{fill:#fff;}</style></defs><title>ACS_Logo_2017-01</title><path class="cls-1" d="M381,280.36a4.41,4.41,0,0,0-4.35,5.07c.1,2.16,2.37,4.76,4.44,4.76a3.73,3.73,0,0,0,2.36-.85c0-.21,0-.41,0-.63a12.3,12.3,0,0,1,1.51-5.92A4.4,4.4,0,0,0,381,280.36Zm-.68,6.65a2.78,2.78,0,1,1,2.62-2.78A2.7,2.7,0,0,1,380.36,287Zm30.11,3.18c2.07,0,4.34-2.6,4.44-4.76a4.4,4.4,0,0,0-8.29-2.64,12.3,12.3,0,0,1,1.51,5.92c0,.21,0,.42,0,.62A3.73,3.73,0,0,0,410.47,290.18Zm.77-8.74a2.78,2.78,0,1,1-2.62,2.78A2.7,2.7,0,0,1,411.24,281.45ZM306.7,290.67c0-.24.19-.47.78-.49h0c2.38,0,70.37,2.07,77.1,2.28a10.14,10.14,0,0,1-.67-3.75,11.87,11.87,0,0,1,.3-2.68c.24-.53,1.62-1.09,1.62-1.09l0-.84c2.38-1.13,7.23-1.17,7.23-1.17v.74h1.45c.59,0,.49-.66.49-.66v-4.38c0-.74-.57-.63-.57-.63l-4.08.15a11.85,11.85,0,0,0-2.14,1.4c-4.58-.66-19.59-2.84-20-3s-.52-.86,0-.86h.08L390.79,278a11.76,11.76,0,0,1,3.84-1.05c.12-2.6.73-16,.8-17.09,0-.5.18-.75.32-.75s.28.25.29.75.77,14.43.92,17.09a11.75,11.75,0,0,1,3.85,1.05l22.41-2.33h.08c.54,0,.52.63,0,.86s-15.41,2.37-20,3a11.85,11.85,0,0,0-2.14-1.4l-4.08-.15s-.57-.1-.57.63V283s-.1.66.49.66h1.45v-.74s4.85,0,7.23,1.17l0,.84s1.37.56,1.62,1.09a11.87,11.87,0,0,1,.3,2.68,9.79,9.79,0,0,1-.7,3.75c6.55-.2,74.75-2.28,77.13-2.28h0c.6,0,.79.24.78.49s-.34.76-.74.79l-81.42,5.91a10.62,10.62,0,0,1-13.86,0l-81.42-5.91C307,291.43,306.64,291,306.7,290.67Zm12,11.48q-.69-2.83-1.38-5.73l-.63-.06-.63-.06-.63-.06-.63-.06c-.46,1.9-.92,3.8-1.39,5.73s-.93,3.88-1.39,5.86-.93,4-1.39,6-.92,4.06-1.39,6.12l.73-.07.73-.07.73-.07.73-.07.33-1.5.33-1.5.33-1.48c.11-.5.22-1,.33-1.48l1.27-.06,1.27-.06,1.27-.06,1.27-.06.34,1.38.34,1.37.34,1.36.34,1.36.73-.07.73-.07.73-.07.73-.07q-.69-2.65-1.38-5.36t-1.38-5.47Q319.36,305,318.67,302.15Zm-1.65,8.2-1,0-1,0-1,0,.52-2.29.52-2.27q.26-1.13.52-2.25l.52-2.23c.17.76.33,1.52.5,2.27l.5,2.25c.17.75.33,1.49.5,2.23l.5,2.21Zm19.26-2.52v-3.16l-.93,2.35-.94,2.39-.94,2.43-.94,2.47-.38,0-.38,0-.38,0-.38,0c-.31-.81-.62-1.62-.94-2.44s-.62-1.65-.94-2.48-.62-1.68-.94-2.53l-.94-2.57v3.44q0,1.72,0,3.44v3.44q0,1.72,0,3.45l-.71.07-.71.07-.71.07-.71.07V313.1q0-2.67,0-5.33v-5.33q0-2.67,0-5.33l.76.07.76.07.76.07.76.07,1.07,3c.36,1,.72,2,1.08,3l1.07,2.91q.54,1.44,1.07,2.85l1.09-2.82q.54-1.4,1.08-2.77l1.09-2.71q.54-1.34,1.08-2.66l.75.07.75.07.75.07.75.07v18.62l-.7.06-.71.06-.71.06-.71.06q0-1.59,0-3.17v-6.33Zm8.69-2.69v1.06l1.53,0,1.53,0,1.53,0,1.53,0v2.6l-1.53,0-1.53,0-1.53,0L345,309v1.15c0,.38,0,.76,0,1.14v2.29l1.82-.11,1.82-.1,1.82-.1,1.82-.1v.7q0,.35,0,.7v1.39l-2.52.21-2.53.22-2.53.22-2.53.23v-4.52q0-2.26,0-4.51v-9l2.48.22,2.48.22,2.48.21,2.48.21v2.79l-1.77-.1-1.78-.1-1.77-.1L345,302v3.17Zm19.86,2.75a4.68,4.68,0,0,0,.71-2.52,4.61,4.61,0,0,0-.35-1.73,5.61,5.61,0,0,0-1-1.58,5.41,5.41,0,0,0-1.47-1.2,4.36,4.36,0,0,0-1.86-.56l-1.61-.13-1.61-.13-1.61-.13-1.61-.13q0,2,0,4v4q0,2,0,4v4l.71-.06.71-.06.71-.06.71-.06v-3.89q0-.65,0-1.3l.7,0,.7,0,.7,0,.7,0,.74,1.23.75,1.21.74,1.2.74,1.18.8-.06.79-.06.79-.06.8-.05-.83-1.29-.83-1.3-.83-1.33-.83-1.35A4.19,4.19,0,0,0,364.83,307.9Zm-2.29-1.66a2.58,2.58,0,0,1-.39.75,1.88,1.88,0,0,1-.58.51,1.5,1.5,0,0,1-.73.19h-3.55v-5l.86,0,.86,0,.86,0,.86,0a1.7,1.7,0,0,1,.73.21,2.2,2.2,0,0,1,.64.53,2.69,2.69,0,0,1,.44.78,2.77,2.77,0,0,1,.17,1A3,3,0,0,1,362.54,306.24Zm7-5.33.71,0,.71,0q0,1.69,0,3.38v6.77q0,1.69,0,3.39l-.71,0-.71,0-.71,0-.71,0v-3.48q0-1.74,0-3.47v-6.95l.71,0Zm6.72,5.3a4.73,4.73,0,0,0-.27,1.54,4.53,4.53,0,0,0,.31,1.65,4.21,4.21,0,0,0,.87,1.37,4.14,4.14,0,0,0,1.36.92,4.07,4.07,0,0,0,1.74.3,5.27,5.27,0,0,0,1-.14,4.54,4.54,0,0,0,1-.36,3.94,3.94,0,0,0,.89-.6,2.71,2.71,0,0,0,.66-.86l.58.27.58.27.58.27.58.27a3.86,3.86,0,0,1-1,1.23,6.85,6.85,0,0,1-1.46.92,9.23,9.23,0,0,1-1.74.62,9.07,9.07,0,0,1-1.81.27,6.78,6.78,0,0,1-2.86-.44,6.86,6.86,0,0,1-2.23-1.43,6.66,6.66,0,0,1-1.46-2.12,6.19,6.19,0,0,1,0-4.88,6,6,0,0,1,1.41-2.06,6.58,6.58,0,0,1,2.26-1.38,7.69,7.69,0,0,1,3-.41,7.93,7.93,0,0,1,3.49.88,5.47,5.47,0,0,1,2.19,2l-.55.3-.54.3-.55.31-.55.31a3.3,3.3,0,0,0-.7-.89,3.64,3.64,0,0,0-.88-.58,4.6,4.6,0,0,0-1-.33,5.66,5.66,0,0,0-1-.12,4.26,4.26,0,0,0-1.86.32,3.8,3.8,0,0,0-1.32.95A4.06,4.06,0,0,0,376.24,306.21Zm19.69-1.39-1.39-3H392l-1.39,3-1.39,3-1.39,3-1.39,3,.73,0,.73,0,.73,0,.73,0,.33-.75.33-.75.33-.75.33-.75h5.1l.34.74.34.73.34.74.34.74h2.92l-1.39-3-1.39-3Zm-1.66,4.3h-3.08l.52-1.17.53-1.17.52-1.16.53-1.16.5,1.16.5,1.16.51,1.16.5,1.16Zm18.66-7.61.71,0,.71,0v9.5q0,1.58,0,3.17l-.58,0-.58,0-.57,0-.57,0L410.17,312l-1.88-2-1.88-2-1.88-1.93v7.69l-.71,0-.71,0H401.7V301.83h2.2l1.9,1.94,1.91,2,1.9,2,1.9,2v-8.15l.71,0Zm38.83,15.37,1.76.16,1.76.16,1.76.16a4.79,4.79,0,0,0,1.81-.17,3.83,3.83,0,0,0,1.49-.84,4,4,0,0,0,1-1.52,6,6,0,0,0,.37-2.21,6.79,6.79,0,0,0-.73-3.3,3.89,3.89,0,0,0-2-1.8,3.82,3.82,0,0,0,1.56-1.89,7.12,7.12,0,0,0,.54-2.75,7.25,7.25,0,0,0-.24-1.82,5.51,5.51,0,0,0-.67-1.57,3.34,3.34,0,0,0-1-1.06,2.13,2.13,0,0,0-1.37-.32l-1.95.18-1.95.18-1.95.17-1.95.17q0,2.24,0,4.48v4.48q0,2.24,0,4.47v4.48Zm1.07-11.78v-3.48l1-.06,1-.06,1-.06,1-.06a1.26,1.26,0,0,1,1.14.59,2.92,2.92,0,0,1,.46,1.75,3,3,0,0,1-.5,1.82,1.53,1.53,0,0,1-1.22.67l-.94,0h-2.83Zm0,7.63V309.1l1.09,0h3.26a1.21,1.21,0,0,1,.68.21,2,2,0,0,1,.53.57,3.06,3.06,0,0,1,.36.84,3.73,3.73,0,0,1,.13,1,3.31,3.31,0,0,1-.14,1,2.73,2.73,0,0,1-.39.79,1.67,1.67,0,0,1-.58.5,1.43,1.43,0,0,1-.73.15l-1.05-.06-1.05-.06-1-.06-1-.06Zm11.08.15v-5.11q0-2.56,0-5.12t0-5.11l.7-.07.71-.07.71-.07.7-.07v5.25q0,2.62,0,5.25V313q0,2.62,0,5.25l-.7-.07-.71-.07-.71-.07-.7-.07Q463.9,315.44,463.9,312.88Zm22.87,17.58q-.12-.1-.37.21a26.7,26.7,0,0,1-2.15,2.41,6.63,6.63,0,0,1-4.11,1.71q.55-.9,1.62-2.7t1.75-2.88a15.18,15.18,0,0,1,1.2-1.69,3.34,3.34,0,0,1,1.26-.92l-1.35-.28a1,1,0,0,0-1.08.32,32.14,32.14,0,0,1-5.28,5.68q-1.06.82-1.53.72a.64.64,0,0,1-.46-.33,1.25,1.25,0,0,1,0-.81,4.83,4.83,0,0,1,.91-1.6q2-2.58,3.17-3.94a2.11,2.11,0,0,1,.82-.56l.29-.15-1.52-.32a1,1,0,0,0-1.08.32c-.52.67-2.87,4.12-3.13,4.47l-.06.09q-.57.68-1.08,1.21a2.34,2.34,0,0,1-2,.93.86.86,0,0,1-.73-.6,2.1,2.1,0,0,1-.09-1,4.4,4.4,0,0,1,.32-1.06q.23-.52.52-1.08t.34-.65a23,23,0,0,0,6.39-6.7,6.51,6.51,0,0,0,.86-1.67l.4,0,.57.05.58.05.57.05v-23.9l-.71.07-.71.07-.71.07-.71.07v3.83q0,1.91,0,3.83v7.66c-.63-1.29-1.26-2.57-1.89-3.83s-1.26-2.5-1.9-3.72-1.26-2.42-1.89-3.6-1.26-2.34-1.9-3.49l-.55.05-.55.05-.55.05-.55.05q0,2.7,0,5.39t0,5.39v5.39q0,2.69,0,5.39l.71.07.71.07.71.07.71.07q0-1.77,0-3.54v-3.54q0-1.77,0-3.54v-3.54q.93,1.75,1.87,3.55t1.87,3.66q.93,1.86,1.87,3.77l1,2.17a2.91,2.91,0,0,0-1.35.63,10.81,10.81,0,0,0-1.45,1.5,34.93,34.93,0,0,0-2.42,3.41,35.58,35.58,0,0,0-2.39,4.28l-.11.22a19.33,19.33,0,0,1-1.73,1.1,10.7,10.7,0,0,0,1.5-2,6.27,6.27,0,0,0,.85-2.39,1.77,1.77,0,0,0-1-2.11,1.4,1.4,0,0,0-.37-.09,2.12,2.12,0,0,0-1.5.55q-.53.4-1,.79a13.37,13.37,0,0,0-1.54,1.75l-.6.75a10,10,0,0,0,1.09-3.36,1.54,1.54,0,0,0,0-.46.31.31,0,0,0-.29-.25,15.21,15.21,0,0,0-1.8,0q.34.19.24,1.12a4.26,4.26,0,0,1-.68,2,6.8,6.8,0,0,1-1.91,1.88,10.15,10.15,0,0,0,.71-1,6.27,6.27,0,0,0,.86-2.39,1.77,1.77,0,0,0-1-2.12,1.4,1.4,0,0,0-.37-.09,2.12,2.12,0,0,0-1.5.55q-.53.4-1,.79a13.37,13.37,0,0,0-1.54,1.75l-.6.75a10,10,0,0,0,1.09-3.36,1.55,1.55,0,0,0,0-.46.31.31,0,0,0-.29-.25,15.22,15.22,0,0,0-1.8,0q.34.19.23,1.12a5.22,5.22,0,0,1-.64,1.88c-.07,0-.14.09-.22.25q-2.12,4.2-3.49,4.16-.56-.06-.54-.88a3.18,3.18,0,0,1,.09-.66,20.19,20.19,0,0,1,1.81-4,13,13,0,0,1,.92-1.61,4.14,4.14,0,0,1,.9-.87l-1.37,0a1,1,0,0,0-1,.51,35.67,35.67,0,0,1-4,6.55q-.89,1-1.37,1a.64.64,0,0,1-.52-.24,1.25,1.25,0,0,1-.17-.79,4.34,4.34,0,0,1,.55-1.63Q449,325,450,323.11a6.91,6.91,0,0,1,1.91-2.51l-1.55,0a1,1,0,0,0-1,.51c-.39.75-2.75,6-2.77,6.68,0,.12-.18,1.44,1.64,1.49,1.05,0,2.23-1,3.52-3.17a5.32,5.32,0,0,0-.29,1.44,2.62,2.62,0,0,0,.13,1,1.31,1.31,0,0,0,1.29.87,2.73,2.73,0,0,0,2-1.07,7.94,7.94,0,0,0,.86-1.16q.46-.74.69-1.17l.28-.52.07-.06a31,31,0,0,1-3.25,5.8,32,32,0,0,1-3.39,4.73,2.06,2.06,0,0,1,.59.12l.45.13.37,0a1.06,1.06,0,0,0,.66-.18,3,3,0,0,0,.83-1L456,329.3a3.44,3.44,0,0,0,1.53.63,4.9,4.9,0,0,0,1.3,0,5.12,5.12,0,0,0,2.2-1,19.16,19.16,0,0,0,3.49-2.65,31,31,0,0,1-3.24,5.8,32,32,0,0,1-3.38,4.74,2.06,2.06,0,0,1,.59.12l.45.13.37,0a1.06,1.06,0,0,0,.66-.18,3,3,0,0,0,.83-1l3.07-5.73a3.44,3.44,0,0,0,1.53.63,4.9,4.9,0,0,0,1.29,0,5.1,5.1,0,0,0,1.91-.81,25.55,25.55,0,0,0,2.54-1.44,7.57,7.57,0,0,0-.52,1.39q-.1.47-.15.77a3.2,3.2,0,0,0,0,.71,1.34,1.34,0,0,0,.4.81,1.92,1.92,0,0,0,1.15.54,3.37,3.37,0,0,0,2.54-.78l.36-.3a.67.67,0,0,0,0,.32q0,1.17,1.33,1.45a2.83,2.83,0,0,0,2.18-.61,20,20,0,0,0,3.17-3.05,31.92,31.92,0,0,1-3.33,5.15q-.63,0-2.84.12a18.64,18.64,0,0,0-3.6.4,4.75,4.75,0,0,0-2.77,1.55,3.69,3.69,0,0,0-.68,1.39,1.39,1.39,0,0,0,.36,1.23,2.78,2.78,0,0,0,1.6.82,6.22,6.22,0,0,0,4.25-.66,18.6,18.6,0,0,0,4.94-4.32,18.35,18.35,0,0,0,2.39-.47,5.55,5.55,0,0,0,1.74-.87,9.69,9.69,0,0,0,1.4-1.23q.57-.62,1.16-1.37a4.83,4.83,0,0,0,.61-.87A.23.23,0,0,0,486.77,330.46ZM476,322.94a25.55,25.55,0,0,1,2.48-3.26q.87-.88,1.12-.84c.12,0,.15.2.09.53a6.31,6.31,0,0,1-.9,1.8,24.78,24.78,0,0,1-2.4,3.08,20.14,20.14,0,0,1-3.08,2.88Q474.39,325.32,476,322.94Zm-18.84,6.43a1.24,1.24,0,0,1-.87-.43,59.62,59.62,0,0,1,4-5.37q1.36-1.51,2.25-1.41a.55.55,0,0,1,.48.4,1.71,1.71,0,0,1,.08.76,5.09,5.09,0,0,1-1,2.15,12,12,0,0,1-3.23,3.2A3.09,3.09,0,0,1,457.17,329.37Zm7.86.88a1.24,1.24,0,0,1-.87-.43,59.64,59.64,0,0,1,4-5.37q1.36-1.51,2.24-1.42a.55.55,0,0,1,.48.4,1.71,1.71,0,0,1,.08.76,5.09,5.09,0,0,1-1,2.15,12,12,0,0,1-3.22,3.2A3.09,3.09,0,0,1,465,330.25Zm11.9,6.22a21.62,21.62,0,0,1-3.56,2.57,4.9,4.9,0,0,1-3.4.83,1.5,1.5,0,0,1-.82-.43.84.84,0,0,1-.2-.78,2.33,2.33,0,0,1,.49-1,4.56,4.56,0,0,1,2.73-1.58,46.44,46.44,0,0,1,5.51-.45ZM445.6,320.78a4.07,4.07,0,0,1,.57,1.94,4.84,4.84,0,0,1-.84,2.6,12.55,12.55,0,0,1-4.33,4.07,15,15,0,0,1-7.92,2,10.46,10.46,0,0,1-7.08-2.27,5.58,5.58,0,0,1-2-4.46,7.53,7.53,0,0,1,1.26-3.82,7.29,7.29,0,0,1,3.09-3,1,1,0,0,1,.57-.1q.19.05-.32.48a7.7,7.7,0,0,0-1.76,1.91A8.88,8.88,0,0,0,425.4,325a4.93,4.93,0,0,0,1,3q1.73,2.32,6,2.62.48.05,1.44.05a13.45,13.45,0,0,0,2.6-.34,12.42,12.42,0,0,0,3.17-1.13,8.27,8.27,0,0,0,4.25-4.48,4.48,4.48,0,0,0,.31-1.58,3.93,3.93,0,0,0-1.55-3.06,17.47,17.47,0,0,0-3.42-1.77,26,26,0,0,1-3.48-1.69,3.77,3.77,0,0,1-2-3.13,3.06,3.06,0,0,1,.35-1.35,4.26,4.26,0,0,1-.88,1.25,5.76,5.76,0,0,1-1.46,1A6.74,6.74,0,0,1,430,315a7.42,7.42,0,0,1-1.81.09,6.82,6.82,0,0,1-2.85-.83,8.44,8.44,0,0,1-2.23-1.75,7.91,7.91,0,0,1-1.46-2.29,6.44,6.44,0,0,1,0-5A7,7,0,0,1,423,303a8,8,0,0,1,2.25-1.7,7.64,7.64,0,0,1,3-.82,6.18,6.18,0,0,1,3.47.65,5.13,5.13,0,0,1,2.18,2.25l-.54.42-.54.41-.54.41-.55.4a3.55,3.55,0,0,0-.7-1,3.23,3.23,0,0,0-.88-.64,3.69,3.69,0,0,0-1-.32,4.71,4.71,0,0,0-1-.07,4.07,4.07,0,0,0-1.86.5,4.32,4.32,0,0,0-1.31,1.13,4.83,4.83,0,0,0-.79,1.51,5.43,5.43,0,0,0-.27,1.65,5.14,5.14,0,0,0,.31,1.77,4.88,4.88,0,0,0,.87,1.52,4.69,4.69,0,0,0,1.35,1.1,4,4,0,0,0,1.73.48,4.44,4.44,0,0,0,1-.07,3.73,3.73,0,0,0,1-.34,3.53,3.53,0,0,0,.89-.66,3.11,3.11,0,0,0,.66-1l.58.36.58.36.58.37.56.36a5.91,5.91,0,0,1,1.31-1.51q2.52-2.14,7.13-2.14l.5,0-.19-.65h0c-.69-2.35-1.27-4.32-1.33-4.52L440,308.3a10.78,10.78,0,0,0-3,.9l.51-1.44q.69-2,1.39-4t1.39-4.11l.63-.05.62-.05.63-.05.62-.05c.46,1.36.92,2.72,1.38,4.11s.92,2.8,1.38,4.23l.27.86v0l.07.24h0l.17.07a2.84,2.84,0,0,1,1.67,1.95,2.62,2.62,0,0,1,.05.51,2.32,2.32,0,0,1-.92,1.78,7.69,7.69,0,0,1-2.58,1.12q-.46.13-.51-.1c0-.22.18-.36.64-.41a2.77,2.77,0,0,0,2.38-1.52,2,2,0,0,0,.08-.53,2.13,2.13,0,0,0-.5-1.33c0,.07.15.42.15.42a3.28,3.28,0,0,1,.11.91,1.82,1.82,0,0,1-2,1.78l-1.2-4.08h0l-.14-.47c-.14,0-.27,0-.41,0a11.89,11.89,0,0,0-4,.79,6.3,6.3,0,0,0-2,1.12,3.08,3.08,0,0,0-1.3,2.24s0,0,0,0v0l.12-.32a8.18,8.18,0,0,1,1.33-1.75A6.25,6.25,0,0,1,439,310l.54-.18c-.91,2.91-1.78,5.7-1.83,5.86l-.44,0,.27.18q.71.43,2.86,1.41a31.15,31.15,0,0,1,3.14,1.59A5.61,5.61,0,0,1,445.6,320.78Zm1.31-4.33-.73-.06-.73-.06-.56-1.89a6.41,6.41,0,0,0,2.21-1c.08-.07.14-.14.21-.21.35,1.12.7,2.25,1.05,3.39l-.73-.06Zm-2.52,13s-6,6.78-7.16,15.18c-1.15,7.93-14.41,3.42-15,0-.46-2.79-.31-11,1-15.54a.27.27,0,0,1,.51,0l.44,1.54s-1.51,9.28-.86,13.17,11.22,5.19,12.21,1C436.89,339.16,441.7,330.82,444.39,329.5Zm-131.79-.23-3,6.74.48-.07,1-2.22,2.79-.38.66,2,.47-.06-2-6.06Zm-1.4,4.06,1.55-3.53,1,3.18Zm6.07-4.85.44-.06-.06.83-.44.06Zm-.16,1.89.44-.06-.38,4.68-.44.06Zm4.69-.6h.12l0,.4a2,2,0,0,0-1,.5,2.51,2.51,0,0,0-.69,1.05l-.25,2.92-.44.05.4-4.68.42-.05-.11,1.15a3,3,0,0,1,.74-.93A1.74,1.74,0,0,1,321.81,329.76Zm1.72,1.59a2.26,2.26,0,0,0-.08.92,2,2,0,0,0,.17.62,1.63,1.63,0,0,0,.33.48,1.24,1.24,0,0,0,.46.29,1.18,1.18,0,0,0,.55.06,1.62,1.62,0,0,0,.46-.12,2.36,2.36,0,0,0,.43-.24,1.79,1.79,0,0,0,.34-.31,1.26,1.26,0,0,0,.21-.35l.42.07a1.88,1.88,0,0,1-.29.48,2.42,2.42,0,0,1-.44.41,2.49,2.49,0,0,1-.54.3,2.29,2.29,0,0,1-.59.15,1.68,1.68,0,0,1-.73-.07,1.61,1.61,0,0,1-.59-.35,1.87,1.87,0,0,1-.41-.57,2.34,2.34,0,0,1-.21-.74,2.66,2.66,0,0,1,.09-1.09,3,3,0,0,1,.49-1,2.91,2.91,0,0,1,.79-.71,2.42,2.42,0,0,1,1-.35,1.66,1.66,0,0,1,1,.17,1.32,1.32,0,0,1,.6.72l-.45.19a1.05,1.05,0,0,0-.48-.54,1.25,1.25,0,0,0-.75-.13,1.81,1.81,0,0,0-.78.28,2.33,2.33,0,0,0-.62.59A2.63,2.63,0,0,0,323.53,331.35Zm7.52-2.65h.12l0,.4a2,2,0,0,0-1.05.48,2.52,2.52,0,0,0-.71,1l-.29,2.92-.44,0,.46-4.67.42,0-.12,1.15a3,3,0,0,1,.76-.92A1.75,1.75,0,0,1,331.06,328.7Zm5.6-.57-.45,0-.11,1a1.86,1.86,0,0,0-.25-.39,1.53,1.53,0,0,0-.35-.31,1.6,1.6,0,0,0-.44-.19,1.49,1.49,0,0,0-.53,0,2.06,2.06,0,0,0-.93.34,2.88,2.88,0,0,0-.75.72,3.17,3.17,0,0,0-.47,1,2.7,2.7,0,0,0-.1,1.06,2.42,2.42,0,0,0,.18.72,1.88,1.88,0,0,0,.38.58,1.61,1.61,0,0,0,.56.37,1.46,1.46,0,0,0,.7.09,2.09,2.09,0,0,0,1-.37,2.8,2.8,0,0,0,.79-.82c0,.11,0,.21,0,.28s0,.13,0,.17,0,.08,0,.11a.52.52,0,0,0,0,.07.3.3,0,0,0,.12.22.37.37,0,0,0,.28.06h.06l.07,0,0-.4c-.1,0-.15,0-.16-.12a.48.48,0,0,1,0-.11Zm-.78,3.14a1.29,1.29,0,0,1-.23.5,2.27,2.27,0,0,1-.42.44,2.65,2.65,0,0,1-.51.32,1.54,1.54,0,0,1-.51.15,1.15,1.15,0,0,1-.55-.07,1.33,1.33,0,0,1-.46-.3,1.59,1.59,0,0,1-.32-.48,1.92,1.92,0,0,1-.16-.6,2.23,2.23,0,0,1,.09-.86,2.82,2.82,0,0,1,.38-.81,2.4,2.4,0,0,1,.61-.62,1.62,1.62,0,0,1,.78-.29,1.24,1.24,0,0,1,.5,0,1.4,1.4,0,0,1,.44.22,1.48,1.48,0,0,1,.34.36,1.4,1.4,0,0,1,.2.45Zm5.24-5.44a.94.94,0,0,1,.37.18l-.2.34a.65.65,0,0,0-.27-.13.94.94,0,0,0-.34,0,1,1,0,0,0-.71.42,2,2,0,0,0-.33,1.08v.16l1.22-.12,0,.37-1.23.12-.71,6.21-.44,0,.71-6.21-.61.06,0-.37.62-.06v-.15a2.66,2.66,0,0,1,.48-1.37,1.35,1.35,0,0,1,1.44-.53Zm2.21,1.68,1-.09,0,.37-1,.09L342.9,331a2.32,2.32,0,0,0,0,.36.36.36,0,0,0,.15.29.48.48,0,0,0,.32.07l.25,0,.21-.08.16-.08.09-.06.08.35-.12.08-.22.11-.28.11a1.83,1.83,0,0,1-.33.06.81.81,0,0,1-.52-.11.56.56,0,0,1-.24-.45s0-.06,0-.09,0-.07,0-.1l.43-3.52-.62.05,0-.37.62-.05.19-1.6.44,0Zm6.27.69a3,3,0,0,0,0,.77,2.87,2.87,0,0,0,.19.85,2.27,2.27,0,0,0,.42.69,1.78,1.78,0,0,0,.61.45,1.6,1.6,0,0,0,.78.12,2.47,2.47,0,0,0,.56-.11,2.56,2.56,0,0,0,.57-.26,2.84,2.84,0,0,0,.53-.43,3,3,0,0,0,.45-.59l.37.16a3,3,0,0,1-.49.67,3.36,3.36,0,0,1-.64.51,3.41,3.41,0,0,1-.71.33,3,3,0,0,1-.71.15,1.89,1.89,0,0,1-.94-.15,2.11,2.11,0,0,1-.72-.54,2.72,2.72,0,0,1-.49-.81,3.33,3.33,0,0,1-.22-1,3.41,3.41,0,0,1,.17-1.32,4.19,4.19,0,0,1,.65-1.25,3.88,3.88,0,0,1,1.06-1,3,3,0,0,1,1.39-.45,2.34,2.34,0,0,1,.72,0,1.83,1.83,0,0,1,.58.24,1.65,1.65,0,0,1,.43.4,1.79,1.79,0,0,1,.27.53l-.4.24a1.47,1.47,0,0,0-.29-.53,1.49,1.49,0,0,0-.41-.33,1.58,1.58,0,0,0-.48-.16,2.15,2.15,0,0,0-.51,0,2.5,2.5,0,0,0-.81.2,2.82,2.82,0,0,0-.69.43,3.27,3.27,0,0,0-.56.6,3.66,3.66,0,0,0-.63,1.49Zm10.67-2-.45,0-.15,1a1.87,1.87,0,0,0-.24-.4,1.5,1.5,0,0,0-.34-.32,1.56,1.56,0,0,0-.43-.21,1.48,1.48,0,0,0-.53-.05,2.06,2.06,0,0,0-.95.3,2.87,2.87,0,0,0-.77.69,3.17,3.17,0,0,0-.51.94,2.7,2.7,0,0,0-.14,1.06,2.43,2.43,0,0,0,.16.73,1.87,1.87,0,0,0,.36.59,1.6,1.6,0,0,0,.54.39,1.45,1.45,0,0,0,.69.11,2.09,2.09,0,0,0,1-.34,2.8,2.8,0,0,0,.82-.79c0,.11,0,.21,0,.28l0,.17s0,.08,0,.11a.59.59,0,0,0,0,.07.3.3,0,0,0,.11.22.38.38,0,0,0,.27.07h.06l.07,0,.06-.4q-.15,0-.16-.12a.48.48,0,0,1,0-.11Zm-.89,3.11a1.31,1.31,0,0,1-.25.49,2.31,2.31,0,0,1-.44.42,2.67,2.67,0,0,1-.52.3,1.56,1.56,0,0,1-.51.14,1.16,1.16,0,0,1-.55-.09,1.33,1.33,0,0,1-.45-.32,1.58,1.58,0,0,1-.31-.49,1.91,1.91,0,0,1-.14-.6,2.23,2.23,0,0,1,.12-.86,2.81,2.81,0,0,1,.41-.79,2.4,2.4,0,0,1,.63-.59,1.63,1.63,0,0,1,.79-.26,1.26,1.26,0,0,1,.5.07,1.4,1.4,0,0,1,.43.24,1.49,1.49,0,0,1,.33.37,1.39,1.39,0,0,1,.18.46Zm6.59-2.92a1.57,1.57,0,0,0-.51-.4,1.39,1.39,0,0,0-.7-.12,1.9,1.9,0,0,0-1,.36,4,4,0,0,0-.85.83l.45-2.88-.44,0-1,6.52.4,0,.14-.93a1.62,1.62,0,0,0,.57.69,1.47,1.47,0,0,0,1,.24,2.16,2.16,0,0,0,1-.29,2.93,2.93,0,0,0,.81-.68,3.19,3.19,0,0,0,.54-1,2.7,2.7,0,0,0,.16-1.1,2.52,2.52,0,0,0-.14-.69A1.84,1.84,0,0,0,366,326.43Zm-.13,2.26a2.77,2.77,0,0,1-.44.8,2.37,2.37,0,0,1-.66.58,1.74,1.74,0,0,1-.8.25,1.42,1.42,0,0,1-.49-.05,1.3,1.3,0,0,1-.41-.2,1.23,1.23,0,0,1-.31-.33,1.14,1.14,0,0,1-.17-.43l.26-1.71a5.14,5.14,0,0,1,.37-.47,3,3,0,0,1,.42-.4,2.33,2.33,0,0,1,.47-.28,1.44,1.44,0,0,1,.51-.13,1.17,1.17,0,0,1,.56.1,1.28,1.28,0,0,1,.42.32,1.52,1.52,0,0,1,.28.48,2,2,0,0,1,.12.58A2.29,2.29,0,0,1,365.84,328.69Zm3.25-4.79.44,0-.13.82-.44,0Zm-.31,1.87.44,0-.75,4.64-.44,0Zm5.84-.05a1.28,1.28,0,0,1,.26.81,3.24,3.24,0,0,1,0,.43c0,.15,0,.32-.06.5l-.45,2.66-.44,0,.43-2.58a4.55,4.55,0,0,0,.06-.45,3.54,3.54,0,0,0,0-.37q0-.88-.77-.85a1.66,1.66,0,0,0-.56.13,2.32,2.32,0,0,0-.55.32,3.05,3.05,0,0,0-.48.47,2.61,2.61,0,0,0-.36.58l-.48,2.87-.44,0,.78-4.63.42,0-.19,1.1a2.69,2.69,0,0,1,.41-.5,3.06,3.06,0,0,1,.51-.39,2.69,2.69,0,0,1,.56-.26,2.14,2.14,0,0,1,.58-.11A.93.93,0,0,1,374.62,325.72Zm9.31-2a1.74,1.74,0,0,1,.72.53l-.3.36a1.61,1.61,0,0,0-1.5-.64,2.9,2.9,0,0,0-.88.14,1.77,1.77,0,0,0-.6.34,1.22,1.22,0,0,0-.34.49,1.62,1.62,0,0,0-.09.61.76.76,0,0,0,.1.39.8.8,0,0,0,.29.27,2.08,2.08,0,0,0,.47.19l.65.16q.4.09.73.19a2.11,2.11,0,0,1,.57.26,1.22,1.22,0,0,1,.37.38,1.1,1.1,0,0,1,.14.55,1.83,1.83,0,0,1-.17.85,1.74,1.74,0,0,1-.51.63,2.47,2.47,0,0,1-.79.4,3.76,3.76,0,0,1-1,.15,2.67,2.67,0,0,1-2.2-.88l.31-.37a2,2,0,0,0,.79.64,2.62,2.62,0,0,0,1.19.21,2.39,2.39,0,0,0,1.4-.41,1.23,1.23,0,0,0,.49-1.08.81.81,0,0,0-.43-.73,4,4,0,0,0-1.2-.4,6.25,6.25,0,0,1-.71-.18,2.18,2.18,0,0,1-.52-.24,1,1,0,0,1-.33-.34,1,1,0,0,1-.12-.5,1.88,1.88,0,0,1,.68-1.54,2.41,2.41,0,0,1,.79-.43,3.45,3.45,0,0,1,1-.17A2.53,2.53,0,0,1,383.92,323.69Zm5.67,5.41a.49.49,0,0,0,0,.08c0,.09.05.14.15.14l-.08.4h-.19a.26.26,0,0,1-.22-.09.33.33,0,0,1-.08-.22.43.43,0,0,1,0-.06l0-.12,0-.23.08-.39a3,3,0,0,1-1,.88,2.34,2.34,0,0,1-1.14.33q-1.07,0-1.09-1.18a3.6,3.6,0,0,1,0-.38,4,4,0,0,1,.07-.45l.53-2.66h.43l-.51,2.6a3.6,3.6,0,0,0-.08.75q0,.94.84.93a1.64,1.64,0,0,0,.55-.11,2.33,2.33,0,0,0,.54-.29,2.85,2.85,0,0,0,.48-.44,2.7,2.7,0,0,0,.38-.57l.56-2.91h.44l-.75,3.86Zm6.44-3.53a1.52,1.52,0,0,0-.51-.43,1.47,1.47,0,0,0-.69-.15,2,2,0,0,0-1,.29,3,3,0,0,0-.86.72l.19-.92h-.4l-1.34,6.48h.44l.59-2.88a1.81,1.81,0,0,0,.54.76,1.39,1.39,0,0,0,.93.31,2.16,2.16,0,0,0,1-.25,2.73,2.73,0,0,0,.81-.64,3.12,3.12,0,0,0,.55-.91,2.78,2.78,0,0,0,.2-1,2.45,2.45,0,0,0-.11-.73A2,2,0,0,0,396,325.58Zm-.18,2.26a2.62,2.62,0,0,1-.45.76,2.46,2.46,0,0,1-.67.55,1.66,1.66,0,0,1-.82.22,1.27,1.27,0,0,1-.48-.09,1.23,1.23,0,0,1-.4-.26,1.59,1.59,0,0,1-.29-.39,1.74,1.74,0,0,1-.18-.48l.32-1.51a1.23,1.23,0,0,1,.28-.47,2.69,2.69,0,0,1,.46-.4,2.52,2.52,0,0,1,.53-.28,1.49,1.49,0,0,1,.5-.11,1.2,1.2,0,0,1,.56.12,1.32,1.32,0,0,1,.43.35,1.64,1.64,0,0,1,.28.51,2,2,0,0,1,.1.62A2.26,2.26,0,0,1,395.85,327.84Zm6.37-2.25a1.54,1.54,0,0,0-.51-.43A1.48,1.48,0,0,0,401,325a2,2,0,0,0-1,.27,3,3,0,0,0-.86.72l.2-.92H399l-1.4,6.47H398l.62-2.87a1.82,1.82,0,0,0,.54.77,1.39,1.39,0,0,0,.93.32,2.15,2.15,0,0,0,1-.23,2.73,2.73,0,0,0,.82-.63,3.12,3.12,0,0,0,.56-.9,2.78,2.78,0,0,0,.21-1,2.45,2.45,0,0,0-.11-.73A2,2,0,0,0,402.22,325.59Zm-.21,2.26a2.62,2.62,0,0,1-.46.75,2.47,2.47,0,0,1-.68.54,1.66,1.66,0,0,1-.82.21,1.26,1.26,0,0,1-.48-.09,1.25,1.25,0,0,1-.4-.26,1.6,1.6,0,0,1-.29-.39,1.75,1.75,0,0,1-.17-.48l.33-1.51a1.24,1.24,0,0,1,.29-.47,2.7,2.7,0,0,1,.47-.39,2.56,2.56,0,0,1,.53-.27,1.46,1.46,0,0,1,.5-.1,1.19,1.19,0,0,1,.56.13,1.32,1.32,0,0,1,.42.35,1.66,1.66,0,0,1,.27.51,1.93,1.93,0,0,1,.09.62A2.25,2.25,0,0,1,402,327.85Zm2.73,1a.75.75,0,0,0,0,.08.38.38,0,0,0,.11.29.45.45,0,0,0,.32.11l.23,0,.25-.06v.35a1.84,1.84,0,0,1-.38.1,2.31,2.31,0,0,1-.38,0,.64.64,0,0,1-.47-.17.59.59,0,0,1-.16-.45,1.07,1.07,0,0,1,0-.22l1.27-5.66H406l-1.24,5.52Zm4-5.56h.44l-.18.81h-.44Zm-.43,1.85h.44l-1,4.58h-.44Zm5.64.36a1.43,1.43,0,0,0-.45-.24,1.77,1.77,0,0,0-.53-.09,2.46,2.46,0,0,0-1.09.21,2.9,2.9,0,0,0-1.49,1.5,2.73,2.73,0,0,0-.23,1,2.41,2.41,0,0,0,.1.75,1.81,1.81,0,0,0,.33.63,1.64,1.64,0,0,0,.54.43,1.68,1.68,0,0,0,.73.17,2.25,2.25,0,0,0,.61-.07,2.51,2.51,0,0,0,.58-.22,2.65,2.65,0,0,0,.5-.36,2.21,2.21,0,0,0,.4-.47l-.37-.12a1.73,1.73,0,0,1-.31.38,2,2,0,0,1-.4.28,2,2,0,0,1-.45.18,1.67,1.67,0,0,1-.46.06,1.36,1.36,0,0,1-.6-.14,1.24,1.24,0,0,1-.42-.35,1.45,1.45,0,0,1-.24-.51,2.24,2.24,0,0,1-.07-.62s0-.1,0-.15,0-.1,0-.15l.69.05.6,0q2.4.06,2.43-1.27a1.13,1.13,0,0,0-.11-.53A1.17,1.17,0,0,0,413.95,325.51Zm-.11,1.3a.85.85,0,0,1-.34.31,2,2,0,0,1-.61.19,4.8,4.8,0,0,1-.93.05l-.58,0-.67-.05a2.81,2.81,0,0,1,.31-.66,2.57,2.57,0,0,1,.48-.57,2.29,2.29,0,0,1,.63-.39,1.86,1.86,0,0,1,.77-.14,1.63,1.63,0,0,1,.39.06,1,1,0,0,1,.34.16.85.85,0,0,1,.23.28.76.76,0,0,1,.08.39A.8.8,0,0,1,413.84,326.81Zm5.69-.8-.3.23a.92.92,0,0,0-.46-.41,1.88,1.88,0,0,0-.72-.16,2,2,0,0,0-.52,0,1.32,1.32,0,0,0-.44.19,1,1,0,0,0-.32.33,1,1,0,0,0-.13.49.48.48,0,0,0,.05.25.54.54,0,0,0,.18.18,1.3,1.3,0,0,0,.3.14l.43.13.61.2a2.13,2.13,0,0,1,.45.22.86.86,0,0,1,.28.29.76.76,0,0,1,.08.4,1.34,1.34,0,0,1-.17.63,1.52,1.52,0,0,1-.43.48,2,2,0,0,1-.64.3,2.65,2.65,0,0,1-.8.09,2.43,2.43,0,0,1-.93-.21,1.62,1.62,0,0,1-.68-.55l.28-.29a1.92,1.92,0,0,0,.62.51,1.85,1.85,0,0,0,.79.18,2.05,2.05,0,0,0,.59-.06,1.53,1.53,0,0,0,.47-.21,1,1,0,0,0,.32-.33.94.94,0,0,0,.13-.46.52.52,0,0,0-.29-.51,4.56,4.56,0,0,0-.87-.34l-.53-.18a1.78,1.78,0,0,1-.38-.19.71.71,0,0,1-.23-.25.7.7,0,0,1-.07-.35,1.41,1.41,0,0,1,.18-.67,1.49,1.49,0,0,1,.44-.48,1.89,1.89,0,0,1,.62-.28,2.6,2.6,0,0,1,.73-.08,1.91,1.91,0,0,1,.86.21A1.13,1.13,0,0,1,419.53,326ZM427.22,341l.13-1.35h0a5.1,5.1,0,0,1-.26.47l-.43.66-.41-.16,1-1.59.54.21-.11,1.29h0q.14-.27.24-.41l.44-.66.41.16-1,1.59Zm1.78.12h0l.6.15-.18.38-1.24-.31.14-.3.73-.39q.37-.19.42-.37a.12.12,0,0,0,0-.1.12.12,0,0,0-.07-.05.58.58,0,0,0-.39.09l-.15-.38a1,1,0,0,1,.73-.1.54.54,0,0,1,.33.21.43.43,0,0,1,.05.37.65.65,0,0,1-.2.32,2.07,2.07,0,0,1-.46.3Zm1.67-.26a2.06,2.06,0,0,1,.14-.31l-.18.11-.28.12-.15-.34L431,340l.39.05-.64,1.78-.49-.07Zm1.06,1.13.35-1.43h-.4l.1-.41,1.3,0-.1.41h-.4l-.35,1.43Zm1-4.19c0,.12-.14.55-.54.46,0,0-1-.24-1-.24l-.55-.84-.76.53s-1-.22-1-.24a.56.56,0,0,1-.4-.62,3.53,3.53,0,0,1-1-.43.62.62,0,0,1-.46-.61,3.86,3.86,0,0,1-1.2-.49c-.45-.1-.4-1.09-.4-1.09a19.48,19.48,0,0,0,5.46,2.06,17.58,17.58,0,0,0,5.71.6s-.27.85-.72.75a4.42,4.42,0,0,1-1.32-.11.47.47,0,0,1-.56.38A4.87,4.87,0,0,1,432.73,337.75ZM307.64,326.09l-.16,0a.78.78,0,0,1-.14-1.55h0a613.94,613.94,0,0,1,118.43-5.79,8,8,0,0,0-1.5,1.71A602.61,602.61,0,0,0,307.64,326.09Z" transform="translate(-306.69 -259.09)"/></svg>