<svg xmlns="http://www.w3.org/2000/svg" viewBox="0 0 1024 650.65"><title>icon</title><g id="Layer_2" data-name="Layer 2"><g id="Layer_1-2" data-name="Layer 1"><path d="M1024,521.23c-167.28,5.06-300.52,9.13-333.81,10.15a156.05,156.05,0,0,0,11.16-59.77,189.07,189.07,0,0,0-4.65-42.72c-4-8.45-25.69-17.37-25.69-17.37V398.13c-38-18.65-115-18.65-115-18.65v11.84H532.39c-9.4,0-7.39-10.57-7.39-10.57v-70c0-11.64,8.88-10,8.88-10l64.93,2.39a188.47,188.47,0,0,1,34.06,22.31c73.16-10,310.47-44,318.75-47.62s8.58-13.51,0-13.51h-1.27L593.12,301.26a187.43,187.43,0,0,0-61.37-16.84C529.36,242,517.25,19.95,517.09,12S514.7,0,512.47,0s-5.1,4-5.1,11.94c-1.12,17.37-10.84,230.95-12.75,272.39a187.51,187.51,0,0,0-61.21,16.77L74.79,264.32H73.51c-8.29,0-6.54,11.12,0,13.67s245.78,37.28,318.78,47.8a188.92,188.92,0,0,1,34.11-22.32l65.27-2.4s9.33-1.76,9.33,10v69.81s1.11,10.41-8.29,10.41H470V379.64s-78,.64-116,18.65v13.39s-21.82,8.93-25.64,17.37a189.11,189.11,0,0,0-4.69,42.72,161.66,161.66,0,0,0,10.72,59.77C300.21,530.47,167,526.4,0,521.34v59.15l401.54,29.15a169.27,169.27,0,0,0,220.91,0L1024,580.49Z"/><path d="M278.59,495.36c13.73,0,27.41-4.83,37.41-13.55v-10a196.71,196.71,0,0,1,24.28-94.36A70.41,70.41,0,0,0,207.9,419.49C209.5,453.92,245.6,495.36,278.59,495.36ZM219.74,403a44.31,44.31,0,0,1,88.47-5.1q.07,1.24.07,2.48a43,43,0,0,1-41.12,44.15l-.64.16A44.31,44.31,0,0,1,219.74,403Z"/><path d="M817.22,419.49A70.17,70.17,0,0,0,685,377.41a196.43,196.43,0,0,1,24,94.36v9.88a60.31,60.31,0,0,0,38,13.55l-.6.16C779.41,495.36,815.63,453.92,817.22,419.49ZM717,402.84q-.07-1.24-.07-2.48A42.92,42.92,0,0,1,758.7,356.2c.22,0,.44.12.66.12h-.64c24.43-2,45.38,17.12,46.79,41.55a44.31,44.31,0,1,1-88.47,5Z"/></g></g></svg>